<svg width="151" height="4388" viewBox="0 0 151 4388" fill="none" xmlns="http://www.w3.org/2000/svg">
<g clip-path="url(#clip0_678_1294)">
<rect width="150" height="1073" fill="black"/>
<path d="M-237 230.984L323.935 -282.103" stroke="#EDEDED" stroke-opacity="0.1" stroke-width="2"/>
<path d="M-229 243.984L331.935 -269.103" stroke="#EDEDED" stroke-opacity="0.1" stroke-width="2"/>
<path d="M-220 256.984L340.935 -256.103" stroke="#EDEDED" stroke-opacity="0.1" stroke-width="2"/>
<path d="M-211 269.984L349.935 -243.103" stroke="#EDEDED" stroke-opacity="0.1" stroke-width="2"/>
<path d="M-202 282.984L358.935 -230.103" stroke="#EDEDED" stroke-opacity="0.1" stroke-width="2"/>
<path d="M-193 295.984L367.935 -217.103" stroke="#EDEDED" stroke-opacity="0.1" stroke-width="2"/>
<path d="M-184 308.984L376.935 -204.103" stroke="#EDEDED" stroke-opacity="0.1" stroke-width="2"/>
<path d="M-175 321.984L385.935 -191.103" stroke="#EDEDED" stroke-opacity="0.1" stroke-width="2"/>
<path d="M-166 334.984L394.935 -178.103" stroke="#EDEDED" stroke-opacity="0.1" stroke-width="2"/>
<path d="M-157 347.984L403.935 -165.103" stroke="#EDEDED" stroke-opacity="0.1" stroke-width="2"/>
<path d="M-148 360.984L412.935 -152.103" stroke="#EDEDED" stroke-opacity="0.1" stroke-width="2"/>
<path d="M-139 373.984L421.935 -139.103" stroke="#EDEDED" stroke-opacity="0.1" stroke-width="2"/>
<path d="M-130 386.984L430.935 -126.103" stroke="#EDEDED" stroke-opacity="0.1" stroke-width="2"/>
<path d="M-121 399.984L439.935 -113.103" stroke="#EDEDED" stroke-opacity="0.1" stroke-width="2"/>
<path d="M-112 412.984L448.935 -100.103" stroke="#EDEDED" stroke-opacity="0.1" stroke-width="2"/>
<path d="M-103 425.984L457.935 -87.103" stroke="#EDEDED" stroke-opacity="0.1" stroke-width="2"/>
<path d="M-93.9996 438.984L466.935 -74.103" stroke="#EDEDED" stroke-opacity="0.1" stroke-width="2"/>
<path d="M-84.9996 451.984L475.935 -61.103" stroke="#EDEDED" stroke-opacity="0.1" stroke-width="2"/>
<path d="M-75.9996 464.984L484.935 -48.103" stroke="#EDEDED" stroke-opacity="0.1" stroke-width="2"/>
<path d="M-66.9996 477.984L493.935 -35.103" stroke="#EDEDED" stroke-opacity="0.1" stroke-width="2"/>
<path d="M-57.9996 490.984L502.935 -22.103" stroke="#EDEDED" stroke-opacity="0.1" stroke-width="2"/>
<path d="M-48.9996 503.984L511.935 -9.10303" stroke="#EDEDED" stroke-opacity="0.1" stroke-width="2"/>
<path d="M-39.9996 516.984L520.935 3.89697" stroke="#EDEDED" stroke-opacity="0.1" stroke-width="2"/>
<path d="M-30.9996 529.984L529.935 16.897" stroke="#EDEDED" stroke-opacity="0.1" stroke-width="2"/>
<path d="M-21.9996 542.984L538.935 29.897" stroke="#EDEDED" stroke-opacity="0.1" stroke-width="2"/>
<path d="M-126 664.984L434.935 151.897" stroke="#EDEDED" stroke-opacity="0.1" stroke-width="2"/>
<path d="M-230 786.984L330.935 273.897" stroke="#EDEDED" stroke-opacity="0.1" stroke-width="2"/>
<path d="M-334 908.984L226.935 395.897" stroke="#EDEDED" stroke-opacity="0.1" stroke-width="2"/>
<path d="M-311 920.984L249.935 407.897" stroke="#EDEDED" stroke-opacity="0.1" stroke-width="2"/>
<path d="M-288 932.984L272.935 419.897" stroke="#EDEDED" stroke-opacity="0.1" stroke-width="2"/>
<path d="M-265 944.984L295.935 431.897" stroke="#EDEDED" stroke-opacity="0.1" stroke-width="2"/>
<path d="M-242 956.984L318.935 443.897" stroke="#EDEDED" stroke-opacity="0.1" stroke-width="2"/>
<path d="M-219 968.984L341.935 455.897" stroke="#EDEDED" stroke-opacity="0.1" stroke-width="2"/>
<path d="M-196 980.984L364.935 467.897" stroke="#EDEDED" stroke-opacity="0.1" stroke-width="2"/>
<path d="M-173 992.984L387.935 479.897" stroke="#EDEDED" stroke-opacity="0.1" stroke-width="2"/>
<path d="M-150 1004.98L410.935 491.897" stroke="#EDEDED" stroke-opacity="0.1" stroke-width="2"/>
<path d="M-127 1016.98L433.935 503.897" stroke="#EDEDED" stroke-opacity="0.1" stroke-width="2"/>
<path d="M-104 1028.98L456.935 515.897" stroke="#EDEDED" stroke-opacity="0.1" stroke-width="2"/>
<path d="M-80.9996 1040.98L479.935 527.897" stroke="#EDEDED" stroke-opacity="0.1" stroke-width="2"/>
<path d="M-57.9996 1052.98L502.935 539.897" stroke="#EDEDED" stroke-opacity="0.1" stroke-width="2"/>
<path d="M-34.9996 1064.98L525.935 551.897" stroke="#EDEDED" stroke-opacity="0.1" stroke-width="2"/>
<path d="M-11.9996 1076.98L548.935 563.897" stroke="#EDEDED" stroke-opacity="0.1" stroke-width="2"/>
<path d="M1.00036 1097.98L561.935 584.897" stroke="#EDEDED" stroke-opacity="0.1" stroke-width="2"/>
<path d="M100 1097.98L660.935 584.897" stroke="#EDEDED" stroke-opacity="0.1" stroke-width="2"/>
<path d="M50.0004 1097.98L610.935 584.897" stroke="#EDEDED" stroke-opacity="0.1" stroke-width="2"/>
</g>
<rect width="150" height="1073" stroke="#1F1F1F"/>
<g clip-path="url(#clip1_678_1294)">
<rect y="1073" width="150" height="1073" fill="black"/>
<path d="M-237 1303.98L323.935 790.897" stroke="#EDEDED" stroke-opacity="0.1" stroke-width="2"/>
<path d="M-229 1316.98L331.935 803.897" stroke="#EDEDED" stroke-opacity="0.1" stroke-width="2"/>
<path d="M-220 1329.98L340.935 816.897" stroke="#EDEDED" stroke-opacity="0.1" stroke-width="2"/>
<path d="M-211 1342.98L349.935 829.897" stroke="#EDEDED" stroke-opacity="0.1" stroke-width="2"/>
<path d="M-202 1355.98L358.935 842.897" stroke="#EDEDED" stroke-opacity="0.1" stroke-width="2"/>
<path d="M-193 1368.98L367.935 855.897" stroke="#EDEDED" stroke-opacity="0.1" stroke-width="2"/>
<path d="M-184 1381.98L376.935 868.897" stroke="#EDEDED" stroke-opacity="0.1" stroke-width="2"/>
<path d="M-175 1394.98L385.935 881.897" stroke="#EDEDED" stroke-opacity="0.1" stroke-width="2"/>
<path d="M-166 1407.98L394.935 894.897" stroke="#EDEDED" stroke-opacity="0.1" stroke-width="2"/>
<path d="M-157 1420.98L403.935 907.897" stroke="#EDEDED" stroke-opacity="0.1" stroke-width="2"/>
<path d="M-148 1433.98L412.935 920.897" stroke="#EDEDED" stroke-opacity="0.1" stroke-width="2"/>
<path d="M-139 1446.98L421.935 933.897" stroke="#EDEDED" stroke-opacity="0.1" stroke-width="2"/>
<path d="M-130 1459.98L430.935 946.897" stroke="#EDEDED" stroke-opacity="0.1" stroke-width="2"/>
<path d="M-121 1472.98L439.935 959.897" stroke="#EDEDED" stroke-opacity="0.1" stroke-width="2"/>
<path d="M-112 1485.98L448.935 972.897" stroke="#EDEDED" stroke-opacity="0.1" stroke-width="2"/>
<path d="M-103 1498.98L457.935 985.897" stroke="#EDEDED" stroke-opacity="0.1" stroke-width="2"/>
<path d="M-93.9996 1511.98L466.935 998.897" stroke="#EDEDED" stroke-opacity="0.1" stroke-width="2"/>
<path d="M-84.9996 1524.98L475.935 1011.9" stroke="#EDEDED" stroke-opacity="0.1" stroke-width="2"/>
<path d="M-75.9996 1537.98L484.935 1024.9" stroke="#EDEDED" stroke-opacity="0.1" stroke-width="2"/>
<path d="M-66.9996 1550.98L493.935 1037.9" stroke="#EDEDED" stroke-opacity="0.1" stroke-width="2"/>
<path d="M-57.9996 1563.98L502.935 1050.9" stroke="#EDEDED" stroke-opacity="0.1" stroke-width="2"/>
<path d="M-48.9996 1576.98L511.935 1063.9" stroke="#EDEDED" stroke-opacity="0.1" stroke-width="2"/>
<path d="M-39.9996 1589.98L520.935 1076.9" stroke="#EDEDED" stroke-opacity="0.1" stroke-width="2"/>
<path d="M-30.9996 1602.98L529.935 1089.9" stroke="#EDEDED" stroke-opacity="0.1" stroke-width="2"/>
<path d="M-21.9996 1615.98L538.935 1102.9" stroke="#EDEDED" stroke-opacity="0.1" stroke-width="2"/>
<path d="M-126 1737.98L434.935 1224.9" stroke="#EDEDED" stroke-opacity="0.1" stroke-width="2"/>
<path d="M-230 1859.98L330.935 1346.9" stroke="#EDEDED" stroke-opacity="0.1" stroke-width="2"/>
<path d="M-334 1981.98L226.935 1468.9" stroke="#EDEDED" stroke-opacity="0.1" stroke-width="2"/>
<path d="M-311 1993.98L249.935 1480.9" stroke="#EDEDED" stroke-opacity="0.1" stroke-width="2"/>
<path d="M-288 2005.98L272.935 1492.9" stroke="#EDEDED" stroke-opacity="0.1" stroke-width="2"/>
<path d="M-265 2017.98L295.935 1504.9" stroke="#EDEDED" stroke-opacity="0.1" stroke-width="2"/>
<path d="M-242 2029.98L318.935 1516.9" stroke="#EDEDED" stroke-opacity="0.1" stroke-width="2"/>
<path d="M-219 2041.98L341.935 1528.9" stroke="#EDEDED" stroke-opacity="0.1" stroke-width="2"/>
<path d="M-196 2053.98L364.935 1540.9" stroke="#EDEDED" stroke-opacity="0.1" stroke-width="2"/>
<path d="M-173 2065.98L387.935 1552.9" stroke="#EDEDED" stroke-opacity="0.1" stroke-width="2"/>
<path d="M-150 2077.98L410.935 1564.9" stroke="#EDEDED" stroke-opacity="0.1" stroke-width="2"/>
<path d="M-127 2089.98L433.935 1576.9" stroke="#EDEDED" stroke-opacity="0.1" stroke-width="2"/>
<path d="M-104 2101.98L456.935 1588.9" stroke="#EDEDED" stroke-opacity="0.1" stroke-width="2"/>
<path d="M-80.9996 2113.98L479.935 1600.9" stroke="#EDEDED" stroke-opacity="0.1" stroke-width="2"/>
<path d="M-57.9996 2125.98L502.935 1612.9" stroke="#EDEDED" stroke-opacity="0.1" stroke-width="2"/>
<path d="M-34.9996 2137.98L525.935 1624.9" stroke="#EDEDED" stroke-opacity="0.1" stroke-width="2"/>
<path d="M-11.9996 2149.98L548.935 1636.9" stroke="#EDEDED" stroke-opacity="0.1" stroke-width="2"/>
<path d="M1.00036 2170.98L561.935 1657.9" stroke="#EDEDED" stroke-opacity="0.1" stroke-width="2"/>
<path d="M100 2170.98L660.935 1657.9" stroke="#EDEDED" stroke-opacity="0.1" stroke-width="2"/>
<path d="M50.0004 2170.98L610.935 1657.9" stroke="#EDEDED" stroke-opacity="0.1" stroke-width="2"/>
</g>
<rect y="1073" width="150" height="1073" stroke="#1F1F1F"/>
<g clip-path="url(#clip2_678_1294)">
<rect y="2146" width="150" height="1073" fill="black"/>
<path d="M-237 2376.98L323.935 1863.9" stroke="#EDEDED" stroke-opacity="0.1" stroke-width="2"/>
<path d="M-229 2389.98L331.935 1876.9" stroke="#EDEDED" stroke-opacity="0.1" stroke-width="2"/>
<path d="M-220 2402.98L340.935 1889.9" stroke="#EDEDED" stroke-opacity="0.1" stroke-width="2"/>
<path d="M-211 2415.98L349.935 1902.9" stroke="#EDEDED" stroke-opacity="0.1" stroke-width="2"/>
<path d="M-202 2428.98L358.935 1915.9" stroke="#EDEDED" stroke-opacity="0.1" stroke-width="2"/>
<path d="M-193 2441.98L367.935 1928.9" stroke="#EDEDED" stroke-opacity="0.1" stroke-width="2"/>
<path d="M-184 2454.98L376.935 1941.9" stroke="#EDEDED" stroke-opacity="0.1" stroke-width="2"/>
<path d="M-175 2467.98L385.935 1954.9" stroke="#EDEDED" stroke-opacity="0.1" stroke-width="2"/>
<path d="M-166 2480.98L394.935 1967.9" stroke="#EDEDED" stroke-opacity="0.1" stroke-width="2"/>
<path d="M-157 2493.98L403.935 1980.9" stroke="#EDEDED" stroke-opacity="0.1" stroke-width="2"/>
<path d="M-148 2506.98L412.935 1993.9" stroke="#EDEDED" stroke-opacity="0.1" stroke-width="2"/>
<path d="M-139 2519.98L421.935 2006.9" stroke="#EDEDED" stroke-opacity="0.1" stroke-width="2"/>
<path d="M-130 2532.98L430.935 2019.9" stroke="#EDEDED" stroke-opacity="0.1" stroke-width="2"/>
<path d="M-121 2545.98L439.935 2032.9" stroke="#EDEDED" stroke-opacity="0.1" stroke-width="2"/>
<path d="M-112 2558.98L448.935 2045.9" stroke="#EDEDED" stroke-opacity="0.1" stroke-width="2"/>
<path d="M-103 2571.98L457.935 2058.9" stroke="#EDEDED" stroke-opacity="0.1" stroke-width="2"/>
<path d="M-93.9996 2584.98L466.935 2071.9" stroke="#EDEDED" stroke-opacity="0.1" stroke-width="2"/>
<path d="M-84.9996 2597.98L475.935 2084.9" stroke="#EDEDED" stroke-opacity="0.1" stroke-width="2"/>
<path d="M-75.9996 2610.98L484.935 2097.9" stroke="#EDEDED" stroke-opacity="0.1" stroke-width="2"/>
<path d="M-66.9996 2623.98L493.935 2110.9" stroke="#EDEDED" stroke-opacity="0.1" stroke-width="2"/>
<path d="M-57.9996 2636.98L502.935 2123.9" stroke="#EDEDED" stroke-opacity="0.1" stroke-width="2"/>
<path d="M-48.9996 2649.98L511.935 2136.9" stroke="#EDEDED" stroke-opacity="0.1" stroke-width="2"/>
<path d="M-39.9996 2662.98L520.935 2149.9" stroke="#EDEDED" stroke-opacity="0.1" stroke-width="2"/>
<path d="M-30.9996 2675.98L529.935 2162.9" stroke="#EDEDED" stroke-opacity="0.1" stroke-width="2"/>
<path d="M-21.9996 2688.98L538.935 2175.9" stroke="#EDEDED" stroke-opacity="0.1" stroke-width="2"/>
<path d="M-126 2810.98L434.935 2297.9" stroke="#EDEDED" stroke-opacity="0.1" stroke-width="2"/>
<path d="M-230 2932.98L330.935 2419.9" stroke="#EDEDED" stroke-opacity="0.1" stroke-width="2"/>
<path d="M-334 3054.98L226.935 2541.9" stroke="#EDEDED" stroke-opacity="0.1" stroke-width="2"/>
<path d="M-311 3066.98L249.935 2553.9" stroke="#EDEDED" stroke-opacity="0.1" stroke-width="2"/>
<path d="M-288 3078.98L272.935 2565.9" stroke="#EDEDED" stroke-opacity="0.1" stroke-width="2"/>
<path d="M-265 3090.98L295.935 2577.9" stroke="#EDEDED" stroke-opacity="0.1" stroke-width="2"/>
<path d="M-242 3102.98L318.935 2589.9" stroke="#EDEDED" stroke-opacity="0.1" stroke-width="2"/>
<path d="M-219 3114.98L341.935 2601.9" stroke="#EDEDED" stroke-opacity="0.1" stroke-width="2"/>
<path d="M-196 3126.98L364.935 2613.9" stroke="#EDEDED" stroke-opacity="0.1" stroke-width="2"/>
<path d="M-173 3138.98L387.935 2625.9" stroke="#EDEDED" stroke-opacity="0.1" stroke-width="2"/>
<path d="M-150 3150.98L410.935 2637.9" stroke="#EDEDED" stroke-opacity="0.1" stroke-width="2"/>
<path d="M-127 3162.98L433.935 2649.9" stroke="#EDEDED" stroke-opacity="0.1" stroke-width="2"/>
<path d="M-104 3174.98L456.935 2661.9" stroke="#EDEDED" stroke-opacity="0.1" stroke-width="2"/>
<path d="M-80.9996 3186.98L479.935 2673.9" stroke="#EDEDED" stroke-opacity="0.1" stroke-width="2"/>
<path d="M-57.9996 3198.98L502.935 2685.9" stroke="#EDEDED" stroke-opacity="0.1" stroke-width="2"/>
<path d="M-34.9996 3210.98L525.935 2697.9" stroke="#EDEDED" stroke-opacity="0.1" stroke-width="2"/>
<path d="M-11.9996 3222.98L548.935 2709.9" stroke="#EDEDED" stroke-opacity="0.1" stroke-width="2"/>
<path d="M1.00036 3243.98L561.935 2730.9" stroke="#EDEDED" stroke-opacity="0.1" stroke-width="2"/>
<path d="M100 3243.98L660.935 2730.9" stroke="#EDEDED" stroke-opacity="0.1" stroke-width="2"/>
<path d="M50.0004 3243.98L610.935 2730.9" stroke="#EDEDED" stroke-opacity="0.1" stroke-width="2"/>
</g>
<rect y="2146" width="150" height="1073" stroke="#1F1F1F"/>
<g clip-path="url(#clip3_678_1294)">
<rect y="3219" width="150" height="1073" fill="black"/>
<path d="M-237 3449.98L323.935 2936.9" stroke="#EDEDED" stroke-opacity="0.1" stroke-width="2"/>
<path d="M-229 3462.98L331.935 2949.9" stroke="#EDEDED" stroke-opacity="0.1" stroke-width="2"/>
<path d="M-220 3475.98L340.935 2962.9" stroke="#EDEDED" stroke-opacity="0.1" stroke-width="2"/>
<path d="M-211 3488.98L349.935 2975.9" stroke="#EDEDED" stroke-opacity="0.1" stroke-width="2"/>
<path d="M-202 3501.98L358.935 2988.9" stroke="#EDEDED" stroke-opacity="0.1" stroke-width="2"/>
<path d="M-193 3514.98L367.935 3001.9" stroke="#EDEDED" stroke-opacity="0.1" stroke-width="2"/>
<path d="M-184 3527.98L376.935 3014.9" stroke="#EDEDED" stroke-opacity="0.1" stroke-width="2"/>
<path d="M-175 3540.98L385.935 3027.9" stroke="#EDEDED" stroke-opacity="0.1" stroke-width="2"/>
<path d="M-166 3553.98L394.935 3040.9" stroke="#EDEDED" stroke-opacity="0.1" stroke-width="2"/>
<path d="M-157 3566.98L403.935 3053.9" stroke="#EDEDED" stroke-opacity="0.1" stroke-width="2"/>
<path d="M-148 3579.98L412.935 3066.9" stroke="#EDEDED" stroke-opacity="0.1" stroke-width="2"/>
<path d="M-139 3592.98L421.935 3079.9" stroke="#EDEDED" stroke-opacity="0.1" stroke-width="2"/>
<path d="M-130 3605.98L430.935 3092.9" stroke="#EDEDED" stroke-opacity="0.1" stroke-width="2"/>
<path d="M-121 3618.98L439.935 3105.9" stroke="#EDEDED" stroke-opacity="0.1" stroke-width="2"/>
<path d="M-112 3631.98L448.935 3118.9" stroke="#EDEDED" stroke-opacity="0.1" stroke-width="2"/>
<path d="M-103 3644.98L457.935 3131.9" stroke="#EDEDED" stroke-opacity="0.1" stroke-width="2"/>
<path d="M-93.9996 3657.98L466.935 3144.9" stroke="#EDEDED" stroke-opacity="0.1" stroke-width="2"/>
<path d="M-84.9996 3670.98L475.935 3157.9" stroke="#EDEDED" stroke-opacity="0.1" stroke-width="2"/>
<path d="M-75.9996 3683.98L484.935 3170.9" stroke="#EDEDED" stroke-opacity="0.1" stroke-width="2"/>
<path d="M-66.9996 3696.98L493.935 3183.9" stroke="#EDEDED" stroke-opacity="0.1" stroke-width="2"/>
<path d="M-57.9996 3709.98L502.935 3196.9" stroke="#EDEDED" stroke-opacity="0.1" stroke-width="2"/>
<path d="M-48.9996 3722.98L511.935 3209.9" stroke="#EDEDED" stroke-opacity="0.1" stroke-width="2"/>
<path d="M-39.9996 3735.98L520.935 3222.9" stroke="#EDEDED" stroke-opacity="0.1" stroke-width="2"/>
<path d="M-30.9996 3748.98L529.935 3235.9" stroke="#EDEDED" stroke-opacity="0.1" stroke-width="2"/>
<path d="M-21.9996 3761.98L538.935 3248.9" stroke="#EDEDED" stroke-opacity="0.1" stroke-width="2"/>
<path d="M-126 3883.98L434.935 3370.9" stroke="#EDEDED" stroke-opacity="0.1" stroke-width="2"/>
<path d="M-230 4005.98L330.935 3492.9" stroke="#EDEDED" stroke-opacity="0.1" stroke-width="2"/>
<path d="M-334 4127.98L226.935 3614.9" stroke="#EDEDED" stroke-opacity="0.1" stroke-width="2"/>
<path d="M-311 4139.98L249.935 3626.9" stroke="#EDEDED" stroke-opacity="0.1" stroke-width="2"/>
<path d="M-288 4151.98L272.935 3638.9" stroke="#EDEDED" stroke-opacity="0.1" stroke-width="2"/>
<path d="M-265 4163.98L295.935 3650.9" stroke="#EDEDED" stroke-opacity="0.1" stroke-width="2"/>
<path d="M-242 4175.98L318.935 3662.9" stroke="#EDEDED" stroke-opacity="0.1" stroke-width="2"/>
<path d="M-219 4187.98L341.935 3674.9" stroke="#EDEDED" stroke-opacity="0.1" stroke-width="2"/>
<path d="M-196 4199.98L364.935 3686.9" stroke="#EDEDED" stroke-opacity="0.1" stroke-width="2"/>
<path d="M-173 4211.98L387.935 3698.9" stroke="#EDEDED" stroke-opacity="0.1" stroke-width="2"/>
<path d="M-150 4223.98L410.935 3710.9" stroke="#EDEDED" stroke-opacity="0.1" stroke-width="2"/>
<path d="M-127 4235.98L433.935 3722.9" stroke="#EDEDED" stroke-opacity="0.1" stroke-width="2"/>
<path d="M-104 4247.98L456.935 3734.9" stroke="#EDEDED" stroke-opacity="0.1" stroke-width="2"/>
<path d="M-80.9996 4259.98L479.935 3746.9" stroke="#EDEDED" stroke-opacity="0.1" stroke-width="2"/>
<path d="M-57.9996 4271.98L502.935 3758.9" stroke="#EDEDED" stroke-opacity="0.1" stroke-width="2"/>
<path d="M-34.9996 4283.98L525.935 3770.9" stroke="#EDEDED" stroke-opacity="0.1" stroke-width="2"/>
<path d="M-11.9996 4295.98L548.935 3782.9" stroke="#EDEDED" stroke-opacity="0.1" stroke-width="2"/>
<path d="M1.00036 4316.98L561.935 3803.9" stroke="#EDEDED" stroke-opacity="0.1" stroke-width="2"/>
<path d="M100 4316.98L660.935 3803.9" stroke="#EDEDED" stroke-opacity="0.1" stroke-width="2"/>
<path d="M50.0004 4316.98L610.935 3803.9" stroke="#EDEDED" stroke-opacity="0.1" stroke-width="2"/>
</g>
<rect y="3219" width="150" height="1073" stroke="#1F1F1F"/>
<g clip-path="url(#clip4_678_1294)">
<rect y="4292" width="150" height="1073" fill="black"/>
<path d="M-237 4522.98L323.935 4009.9" stroke="#EDEDED" stroke-opacity="0.1" stroke-width="2"/>
<path d="M-229 4535.98L331.935 4022.9" stroke="#EDEDED" stroke-opacity="0.1" stroke-width="2"/>
<path d="M-220 4548.98L340.935 4035.9" stroke="#EDEDED" stroke-opacity="0.1" stroke-width="2"/>
<path d="M-211 4561.98L349.935 4048.9" stroke="#EDEDED" stroke-opacity="0.1" stroke-width="2"/>
<path d="M-202 4574.98L358.935 4061.9" stroke="#EDEDED" stroke-opacity="0.1" stroke-width="2"/>
<path d="M-193 4587.98L367.935 4074.9" stroke="#EDEDED" stroke-opacity="0.1" stroke-width="2"/>
<path d="M-184 4600.98L376.935 4087.9" stroke="#EDEDED" stroke-opacity="0.1" stroke-width="2"/>
<path d="M-175 4613.98L385.935 4100.9" stroke="#EDEDED" stroke-opacity="0.1" stroke-width="2"/>
<path d="M-166 4626.98L394.935 4113.9" stroke="#EDEDED" stroke-opacity="0.1" stroke-width="2"/>
<path d="M-157 4639.98L403.935 4126.9" stroke="#EDEDED" stroke-opacity="0.1" stroke-width="2"/>
<path d="M-148 4652.98L412.935 4139.9" stroke="#EDEDED" stroke-opacity="0.1" stroke-width="2"/>
<path d="M-139 4665.98L421.935 4152.9" stroke="#EDEDED" stroke-opacity="0.1" stroke-width="2"/>
<path d="M-130 4678.98L430.935 4165.9" stroke="#EDEDED" stroke-opacity="0.1" stroke-width="2"/>
<path d="M-121 4691.98L439.935 4178.9" stroke="#EDEDED" stroke-opacity="0.1" stroke-width="2"/>
<path d="M-112 4704.98L448.935 4191.9" stroke="#EDEDED" stroke-opacity="0.1" stroke-width="2"/>
<path d="M-103 4717.98L457.935 4204.9" stroke="#EDEDED" stroke-opacity="0.1" stroke-width="2"/>
<path d="M-93.9996 4730.98L466.935 4217.9" stroke="#EDEDED" stroke-opacity="0.1" stroke-width="2"/>
<path d="M-84.9996 4743.98L475.935 4230.9" stroke="#EDEDED" stroke-opacity="0.1" stroke-width="2"/>
<path d="M-75.9996 4756.98L484.935 4243.9" stroke="#EDEDED" stroke-opacity="0.1" stroke-width="2"/>
<path d="M-66.9996 4769.98L493.935 4256.9" stroke="#EDEDED" stroke-opacity="0.1" stroke-width="2"/>
<path d="M-57.9996 4782.98L502.935 4269.9" stroke="#EDEDED" stroke-opacity="0.1" stroke-width="2"/>
<path d="M-48.9996 4795.98L511.935 4282.9" stroke="#EDEDED" stroke-opacity="0.1" stroke-width="2"/>
<path d="M-39.9996 4808.98L520.935 4295.9" stroke="#EDEDED" stroke-opacity="0.1" stroke-width="2"/>
<path d="M-30.9996 4821.98L529.935 4308.9" stroke="#EDEDED" stroke-opacity="0.1" stroke-width="2"/>
<path d="M-21.9996 4834.98L538.935 4321.9" stroke="#EDEDED" stroke-opacity="0.1" stroke-width="2"/>
<path d="M-126 4956.98L434.935 4443.9" stroke="#EDEDED" stroke-opacity="0.1" stroke-width="2"/>
</g>
<rect y="4292" width="150" height="1073" stroke="#1F1F1F"/>
<defs>
<clipPath id="clip0_678_1294">
<rect width="150" height="1073" fill="white"/>
</clipPath>
<clipPath id="clip1_678_1294">
<rect y="1073" width="150" height="1073" fill="white"/>
</clipPath>
<clipPath id="clip2_678_1294">
<rect y="2146" width="150" height="1073" fill="white"/>
</clipPath>
<clipPath id="clip3_678_1294">
<rect y="3219" width="150" height="1073" fill="white"/>
</clipPath>
<clipPath id="clip4_678_1294">
<rect y="4292" width="150" height="1073" fill="white"/>
</clipPath>
</defs>
</svg>
