<svg width="1140" height="951" viewBox="0 0 1140 951" fill="none" xmlns="http://www.w3.org/2000/svg">
<rect x="-13.75" y="-35.25" width="36" height="36" stroke="#A9EF2E" stroke-width="0.5"/>
<rect x="-13.75" y="1.25" width="36" height="36" stroke="#A9EF2E" stroke-width="0.5"/>
<rect x="-13.75" y="37.75" width="36" height="36" stroke="#A9EF2E" stroke-width="0.5"/>
<rect x="-13.75" y="74.25" width="36" height="36" stroke="#A9EF2E" stroke-width="0.5"/>
<rect x="-13.75" y="110.75" width="36" height="36" stroke="#A9EF2E" stroke-width="0.5"/>
<rect x="-13.75" y="147.25" width="36" height="36" stroke="#A9EF2E" stroke-width="0.5"/>
<rect x="-13.75" y="183.75" width="36" height="36" stroke="#A9EF2E" stroke-width="0.5"/>
<rect x="-13.75" y="220.25" width="36" height="36" stroke="#A9EF2E" stroke-width="0.5"/>
<rect x="-13.75" y="256.75" width="36" height="36" stroke="#A9EF2E" stroke-width="0.5"/>
<rect x="-13.75" y="293.25" width="36" height="36" stroke="#A9EF2E" stroke-width="0.5"/>
<rect x="-13.75" y="329.75" width="36" height="36" stroke="#A9EF2E" stroke-width="0.5"/>
<rect x="-13.75" y="366.25" width="36" height="36" stroke="#A9EF2E" stroke-width="0.5"/>
<rect x="-13.75" y="402.75" width="36" height="36" stroke="#A9EF2E" stroke-width="0.5"/>
<rect x="-13.75" y="439.25" width="36" height="36" stroke="#A9EF2E" stroke-width="0.5"/>
<rect x="-13.75" y="475.75" width="36" height="36" stroke="#A9EF2E" stroke-width="0.5"/>
<rect x="-13.75" y="512.25" width="36" height="36" stroke="#A9EF2E" stroke-width="0.5"/>
<rect x="-13.75" y="548.75" width="36" height="36" stroke="#A9EF2E" stroke-width="0.5"/>
<rect x="-13.75" y="585.25" width="36" height="36" stroke="#A9EF2E" stroke-width="0.5"/>
<rect x="-13.75" y="621.75" width="36" height="36" stroke="#A9EF2E" stroke-width="0.5"/>
<rect x="-13.75" y="658.25" width="36" height="36" stroke="#A9EF2E" stroke-width="0.5"/>
<rect x="-13.75" y="694.75" width="36" height="36" stroke="#A9EF2E" stroke-width="0.5"/>
<rect x="-13.75" y="731.25" width="36" height="36" stroke="#A9EF2E" stroke-width="0.5"/>
<rect x="-13.75" y="767.75" width="36" height="36" stroke="#A9EF2E" stroke-width="0.5"/>
<rect x="-13.75" y="804.25" width="36" height="36" stroke="#A9EF2E" stroke-width="0.5"/>
<rect x="-13.75" y="840.75" width="36" height="36" stroke="#A9EF2E" stroke-width="0.5"/>
<rect x="-13.75" y="877.25" width="36" height="36" stroke="#A9EF2E" stroke-width="0.5"/>
<rect x="-13.75" y="913.75" width="36" height="36" stroke="#A9EF2E" stroke-width="0.5"/>
<rect x="-13.75" y="950.25" width="36" height="36" stroke="#A9EF2E" stroke-width="0.5"/>
<rect x="22.75" y="-35.25" width="36" height="36" stroke="#A9EF2E" stroke-width="0.5"/>
<rect x="22.75" y="1.25" width="36" height="36" stroke="#A9EF2E" stroke-width="0.5"/>
<rect x="22.75" y="37.75" width="36" height="36" stroke="#A9EF2E" stroke-width="0.5"/>
<rect x="22.75" y="74.25" width="36" height="36" stroke="#A9EF2E" stroke-width="0.5"/>
<rect x="22.75" y="110.75" width="36" height="36" stroke="#A9EF2E" stroke-width="0.5"/>
<rect x="22.75" y="147.25" width="36" height="36" stroke="#A9EF2E" stroke-width="0.5"/>
<rect x="22.75" y="183.75" width="36" height="36" stroke="#A9EF2E" stroke-width="0.5"/>
<rect x="22.75" y="220.25" width="36" height="36" stroke="#A9EF2E" stroke-width="0.5"/>
<rect x="22.75" y="256.75" width="36" height="36" stroke="#A9EF2E" stroke-width="0.5"/>
<rect x="22.75" y="293.25" width="36" height="36" stroke="#A9EF2E" stroke-width="0.5"/>
<rect x="22.75" y="329.75" width="36" height="36" stroke="#A9EF2E" stroke-width="0.5"/>
<rect x="22.75" y="366.25" width="36" height="36" stroke="#A9EF2E" stroke-width="0.5"/>
<rect x="22.75" y="402.75" width="36" height="36" stroke="#A9EF2E" stroke-width="0.5"/>
<rect x="22.75" y="439.25" width="36" height="36" stroke="#A9EF2E" stroke-width="0.5"/>
<rect x="22.75" y="475.75" width="36" height="36" stroke="#A9EF2E" stroke-width="0.5"/>
<rect x="22.75" y="512.25" width="36" height="36" stroke="#A9EF2E" stroke-width="0.5"/>
<rect x="22.75" y="548.75" width="36" height="36" stroke="#A9EF2E" stroke-width="0.5"/>
<rect x="22.75" y="585.25" width="36" height="36" stroke="#A9EF2E" stroke-width="0.5"/>
<rect x="22.75" y="621.75" width="36" height="36" stroke="#A9EF2E" stroke-width="0.5"/>
<rect x="22.75" y="658.25" width="36" height="36" stroke="#A9EF2E" stroke-width="0.5"/>
<rect x="22.75" y="694.75" width="36" height="36" stroke="#A9EF2E" stroke-width="0.5"/>
<rect x="22.75" y="731.25" width="36" height="36" stroke="#A9EF2E" stroke-width="0.5"/>
<rect x="22.75" y="767.75" width="36" height="36" stroke="#A9EF2E" stroke-width="0.5"/>
<rect x="22.75" y="804.25" width="36" height="36" stroke="#A9EF2E" stroke-width="0.5"/>
<rect x="22.75" y="840.75" width="36" height="36" stroke="#A9EF2E" stroke-width="0.5"/>
<rect x="22.75" y="877.25" width="36" height="36" stroke="#A9EF2E" stroke-width="0.5"/>
<rect x="22.75" y="913.75" width="36" height="36" stroke="#A9EF2E" stroke-width="0.5"/>
<rect x="22.75" y="950.25" width="36" height="36" stroke="#A9EF2E" stroke-width="0.5"/>
<rect x="59.25" y="-35.25" width="36" height="36" stroke="#A9EF2E" stroke-width="0.5"/>
<rect x="59.25" y="1.25" width="36" height="36" stroke="#A9EF2E" stroke-width="0.5"/>
<rect x="59.25" y="37.75" width="36" height="36" stroke="#A9EF2E" stroke-width="0.5"/>
<rect x="59.25" y="74.25" width="36" height="36" stroke="#A9EF2E" stroke-width="0.5"/>
<rect x="59.25" y="110.75" width="36" height="36" stroke="#A9EF2E" stroke-width="0.5"/>
<rect x="59.25" y="147.25" width="36" height="36" stroke="#A9EF2E" stroke-width="0.5"/>
<rect x="59.25" y="183.75" width="36" height="36" stroke="#A9EF2E" stroke-width="0.5"/>
<rect x="59.25" y="220.25" width="36" height="36" stroke="#A9EF2E" stroke-width="0.5"/>
<rect x="59.25" y="256.75" width="36" height="36" stroke="#A9EF2E" stroke-width="0.5"/>
<rect x="59.25" y="293.25" width="36" height="36" stroke="#A9EF2E" stroke-width="0.5"/>
<rect x="59.25" y="329.75" width="36" height="36" stroke="#A9EF2E" stroke-width="0.5"/>
<rect x="59.25" y="366.25" width="36" height="36" stroke="#A9EF2E" stroke-width="0.5"/>
<rect x="59.25" y="402.75" width="36" height="36" stroke="#A9EF2E" stroke-width="0.5"/>
<rect x="59.25" y="439.25" width="36" height="36" stroke="#A9EF2E" stroke-width="0.5"/>
<rect x="59.25" y="475.75" width="36" height="36" stroke="#A9EF2E" stroke-width="0.5"/>
<rect x="59.25" y="512.25" width="36" height="36" stroke="#A9EF2E" stroke-width="0.5"/>
<rect x="59.25" y="548.75" width="36" height="36" stroke="#A9EF2E" stroke-width="0.5"/>
<rect x="59.25" y="585.25" width="36" height="36" stroke="#A9EF2E" stroke-width="0.5"/>
<rect x="59.25" y="621.75" width="36" height="36" stroke="#A9EF2E" stroke-width="0.5"/>
<rect x="59.25" y="658.25" width="36" height="36" stroke="#A9EF2E" stroke-width="0.5"/>
<rect x="59.25" y="694.75" width="36" height="36" stroke="#A9EF2E" stroke-width="0.5"/>
<rect x="59.25" y="731.25" width="36" height="36" stroke="#A9EF2E" stroke-width="0.5"/>
<rect x="59.25" y="767.75" width="36" height="36" stroke="#A9EF2E" stroke-width="0.5"/>
<rect x="59.25" y="804.25" width="36" height="36" stroke="#A9EF2E" stroke-width="0.5"/>
<rect x="59.25" y="840.75" width="36" height="36" stroke="#A9EF2E" stroke-width="0.5"/>
<rect x="59.25" y="877.25" width="36" height="36" stroke="#A9EF2E" stroke-width="0.5"/>
<rect x="59.25" y="913.75" width="36" height="36" stroke="#A9EF2E" stroke-width="0.5"/>
<rect x="59.25" y="950.25" width="36" height="36" stroke="#A9EF2E" stroke-width="0.5"/>
<rect x="95.75" y="-35.25" width="36" height="36" stroke="#A9EF2E" stroke-width="0.5"/>
<rect x="95.75" y="1.25" width="36" height="36" stroke="#A9EF2E" stroke-width="0.5"/>
<rect x="95.75" y="37.75" width="36" height="36" stroke="#A9EF2E" stroke-width="0.5"/>
<rect x="95.75" y="74.25" width="36" height="36" stroke="#A9EF2E" stroke-width="0.5"/>
<rect x="95.75" y="110.75" width="36" height="36" stroke="#A9EF2E" stroke-width="0.5"/>
<rect x="95.75" y="147.25" width="36" height="36" stroke="#A9EF2E" stroke-width="0.5"/>
<rect x="95.75" y="183.75" width="36" height="36" stroke="#A9EF2E" stroke-width="0.5"/>
<rect x="95.75" y="220.25" width="36" height="36" stroke="#A9EF2E" stroke-width="0.5"/>
<rect x="95.75" y="256.75" width="36" height="36" stroke="#A9EF2E" stroke-width="0.5"/>
<rect x="95.75" y="293.25" width="36" height="36" stroke="#A9EF2E" stroke-width="0.5"/>
<rect x="95.75" y="329.75" width="36" height="36" stroke="#A9EF2E" stroke-width="0.5"/>
<rect x="95.75" y="366.25" width="36" height="36" stroke="#A9EF2E" stroke-width="0.5"/>
<rect x="95.75" y="402.75" width="36" height="36" stroke="#A9EF2E" stroke-width="0.5"/>
<rect x="95.75" y="439.25" width="36" height="36" stroke="#A9EF2E" stroke-width="0.5"/>
<rect x="95.75" y="475.75" width="36" height="36" stroke="#A9EF2E" stroke-width="0.5"/>
<rect x="95.75" y="512.25" width="36" height="36" stroke="#A9EF2E" stroke-width="0.5"/>
<rect x="95.75" y="548.75" width="36" height="36" stroke="#A9EF2E" stroke-width="0.5"/>
<rect x="95.75" y="585.25" width="36" height="36" stroke="#A9EF2E" stroke-width="0.5"/>
<rect x="95.75" y="621.75" width="36" height="36" stroke="#A9EF2E" stroke-width="0.5"/>
<rect x="95.75" y="658.25" width="36" height="36" stroke="#A9EF2E" stroke-width="0.5"/>
<rect x="95.75" y="694.75" width="36" height="36" stroke="#A9EF2E" stroke-width="0.5"/>
<rect x="95.75" y="731.25" width="36" height="36" stroke="#A9EF2E" stroke-width="0.5"/>
<rect x="95.75" y="767.75" width="36" height="36" stroke="#A9EF2E" stroke-width="0.5"/>
<rect x="95.75" y="804.25" width="36" height="36" stroke="#A9EF2E" stroke-width="0.5"/>
<rect x="95.75" y="840.75" width="36" height="36" stroke="#A9EF2E" stroke-width="0.5"/>
<rect x="95.75" y="877.25" width="36" height="36" stroke="#A9EF2E" stroke-width="0.5"/>
<rect x="95.75" y="913.75" width="36" height="36" stroke="#A9EF2E" stroke-width="0.5"/>
<rect x="95.75" y="950.25" width="36" height="36" stroke="#A9EF2E" stroke-width="0.5"/>
<rect x="132.25" y="-35.25" width="36" height="36" stroke="#A9EF2E" stroke-width="0.5"/>
<rect x="132.25" y="1.25" width="36" height="36" stroke="#A9EF2E" stroke-width="0.5"/>
<rect x="132.25" y="37.75" width="36" height="36" stroke="#A9EF2E" stroke-width="0.5"/>
<rect x="132.25" y="74.25" width="36" height="36" stroke="#A9EF2E" stroke-width="0.5"/>
<rect x="132.25" y="110.75" width="36" height="36" stroke="#A9EF2E" stroke-width="0.5"/>
<rect x="132.25" y="147.25" width="36" height="36" stroke="#A9EF2E" stroke-width="0.5"/>
<rect x="132.25" y="183.75" width="36" height="36" stroke="#A9EF2E" stroke-width="0.5"/>
<rect x="132.25" y="220.25" width="36" height="36" stroke="#A9EF2E" stroke-width="0.5"/>
<rect x="132.25" y="256.75" width="36" height="36" stroke="#A9EF2E" stroke-width="0.5"/>
<rect x="132.25" y="293.25" width="36" height="36" stroke="#A9EF2E" stroke-width="0.5"/>
<rect x="132.25" y="329.75" width="36" height="36" stroke="#A9EF2E" stroke-width="0.5"/>
<rect x="132.25" y="366.25" width="36" height="36" stroke="#A9EF2E" stroke-width="0.5"/>
<rect x="132.25" y="402.75" width="36" height="36" stroke="#A9EF2E" stroke-width="0.5"/>
<rect x="132.25" y="439.25" width="36" height="36" stroke="#A9EF2E" stroke-width="0.5"/>
<rect x="132.25" y="475.75" width="36" height="36" stroke="#A9EF2E" stroke-width="0.5"/>
<rect x="132.25" y="512.25" width="36" height="36" stroke="#A9EF2E" stroke-width="0.5"/>
<rect x="132.25" y="548.75" width="36" height="36" stroke="#A9EF2E" stroke-width="0.5"/>
<rect x="132.25" y="585.25" width="36" height="36" stroke="#A9EF2E" stroke-width="0.5"/>
<rect x="132.25" y="621.75" width="36" height="36" stroke="#A9EF2E" stroke-width="0.5"/>
<rect x="132.25" y="658.25" width="36" height="36" stroke="#A9EF2E" stroke-width="0.5"/>
<rect x="132.25" y="694.75" width="36" height="36" stroke="#A9EF2E" stroke-width="0.5"/>
<rect x="132.25" y="731.25" width="36" height="36" stroke="#A9EF2E" stroke-width="0.5"/>
<rect x="132.25" y="767.75" width="36" height="36" stroke="#A9EF2E" stroke-width="0.5"/>
<rect x="132.25" y="804.25" width="36" height="36" stroke="#A9EF2E" stroke-width="0.5"/>
<rect x="1Two.25" y="840.75" width="36" height="36" stroke="#A9EF2E" stroke-width="0.5"/>
<rect x="132.25" y="877.25" width="36" height="36" stroke="#A9EF2E" stroke-width="0.5"/>
<rect x="132.25" y="913.75" width="36" height="36" stroke="#A9EF2E" stroke-width="0.5"/>
<rect x="132.25" y="950.25" width="36" height="36" stroke="#A9EF2E" stroke-width="0.5"/>
<rect x="168.75" y="-35.25" width="36" height="36" stroke="#A9EF2E" stroke-width="0.5"/>
<rect x="168.75" y="1.25" width="36" height="36" stroke="#A9EF2E" stroke-width="0.5"/>
<rect x="168.75" y="37.75" width="36" height="36" stroke="#A9EF2E" stroke-width="0.5"/>
<rect x="168.75" y="74.25" width="36" height="36" stroke="#A9EF2E" stroke-width="0.5"/>
<rect x="168.75" y="110.75" width="36" height="36" stroke="#A9EF2E" stroke-width="0.5"/>
<rect x="168.75" y="147.25" width="36" height="36" stroke="#A9EF2E" stroke-width="0.5"/>
<rect x="168.75" y="183.75" width="36" height="36" stroke="#A9EF2E" stroke-width="0.5"/>
<rect x="168.75" y="220.25" width="36" height="36" stroke="#A9EF2E" stroke-width="0.5"/>
<rect x="168.75" y="256.75" width="36" height="36" stroke="#A9EF2E" stroke-width="0.5"/>
<rect x="168.75" y="293.25" width="36" height="36" stroke="#A9EF2E" stroke-width="0.5"/>
<rect x="168.75" y="329.75" width="36" height="36" stroke="#A9EF2E" stroke-width="0.5"/>
<rect x="168.75" y="366.25" width="36" height="36" stroke="#A9EF2E" stroke-width="0.5"/>
<rect x="168.75" y="402.75" width="36" height="36" stroke="#A9EF2E" stroke-width="0.Example"/>
<rect x="168.75" y="439.25" width="36" height="36" stroke="#A9EF2E" stroke-width="0.5"/>
<rect x="168.75" y="475.75" width="36" height="36" stroke="#A9EF2E" stroke-width="0.5"/>
<rect x="168.75" y="512.25" width="36" height="36" stroke="#A9EF2E" stroke-width="0.5"/>
<rect x="168.75" y="548.75" width="36" height="36" stroke="#A9EF2E" stroke-width="0.5"/>
<rect x="168.75" y="585.25" width="36" height="36" stroke="#A9EF2E" stroke-width="0.5"/>
<rect x="168.75" y="621.75" width="36" height="36" stroke="#A9EF2E" stroke-width="0.5"/>
<rect x="168.75" y="658.25" width="36" height="36" stroke="#A9EF2E" stroke-width="0.5"/>
<rect x="168.75" y="694.75" width="36" height="36" stroke="#A9EF2E" stroke-width="0.5"/>
<rect x="168.75" y="731.25" width="36" height="36" stroke="#A9EF2E" stroke-width="0.5"/>
<rect x="168.75" y="767.75" width="36" height="36" stroke="#A9EF2E" stroke-width="0.5"/>
<rect x="168.75" y="804.25" width="36" height="36" stroke="#A9EF2E" stroke-width="0.5"/>
<rect x="168.75" y="840.75" width="36" height="36" stroke="#A9EF2E" stroke-width="0.5"/>
<rect x="168.75" y="877.25" width="36" height="36" stroke="#A9EF2E" stroke-width="0.5"/>
<rect x="168.75" y="913.75" width="36" height="36" stroke="#A9EF2E" stroke-width="0.5"/>
<rect x="168.75" y="950.25" width="36" height="36" stroke="#A9EF2E" stroke-width="0.5"/>
<rect x="205.25" y="-35.25" width="36" height="36" stroke="#A9EF2E" stroke-width="0.5"/>
<rect x="205.25" y="1.25" width="36" height="36" stroke="#A9EF2E" stroke-width="0.5"/>
<rect x="205.25" y="37.75" width="36" height="36" stroke="#A9EF2E" stroke-width="0.5"/>
<rect x="205.25" y="74.25" width="36" height="36" stroke="#A9EF2E" stroke-width="0.5"/>
<rect x="205.25" y="110.75" width="36" height="36" stroke="#A9EF2E" stroke-width="0.5"/>
<rect x="205.25" y="147.25" width="36" height="36" stroke="#A9EF2E" stroke-width="0.5"/>
<rect x="205.25" y="183.75" width="36" height="36" stroke="#A9EF2E" stroke-width="0.5"/>
<rect x="205.25" y="220.25" width="36" height="36" stroke="#A9EF2E" stroke-width="0.5"/>
<rect x="205.25" y="256.75" width="36" height="36" stroke="#A9EF2E" stroke-width="0.5"/>
<rect x="205.25" y="293.25" width="36" height="36" stroke="#A9EF2E" stroke-width="0.5"/>
<rect x="205.25" y="329.75" width="36" height="36" stroke="#A9EF2E" stroke-width="0.5"/>
<rect x="205.25" y="366.25" width="36" height="36" stroke="#A9EF2E" stroke-width="0.5"/>
<rect x="205.25" y="402.75" width="36" height="36" stroke="#A9EF2E" stroke-width="0.5"/>
<rect x="205.25" y="439.25" width="36" height="36" stroke="#A9EF2E" stroke-width="0.5"/>
<rect x="205.25" y="475.75" width="36" height="36" stroke="#A9EF2E" stroke-width="0.5"/>
<rect x="205.25" y="512.25" width="36" height="36" stroke="#A9EF2E" stroke-width="0.5"/>
<rect x="205.25" y="548.75" width="36" height="36" stroke="#A9EF2E" stroke-width="0.5"/>
<rect x="205.25" y="585.25" width="36" height="36" stroke="#A9EF2E" stroke-width="0.5"/>
<rect x="205.25" y="621.75" width="36" height="36" stroke="#A9EF2E" stroke-width="0.5"/>
<rect x="205.25" y="658.25" width="36" height="36" stroke="#A9EF2E" stroke-width="0.5"/>
<rect x="205.25" y="694.75" width="36" height="36" stroke="#A9EF2E" stroke-width="0.5"/>
<rect x="205.25" y="731.25" width="36" height="36" stroke="#A9EF2E" stroke-width="0.5"/>
<rect x="205.25" y="767.75" width="36" height="36" stroke="#A9EF2E" stroke-width="0.5"/>
<rect x="205.25" y="804.25" width="36" height="36" stroke="#A9EF2E" stroke-width="0.5"/>
<rect x="205.25" y="840.75" width="36" height="36" stroke="#A9EF2E" stroke-width="0.5"/>
<rect x="205.25" y="877.25" width="36" height="36" stroke="#A9EF2E" stroke-width="0.5"/>
<rect x="205.25" y="913.75" width="36" height="36" stroke="#A9EF2E" stroke-width="0.5"/>
<rect x="205.25" y="950.25" width="36" height="36" stroke="#A9EF2E" stroke-width="0.5"/>
<rect x="241.75" y="-35.25" width="36" height="36" stroke="#A9EF2E" stroke-width="0.5"/>
<rect x="241.75" y="1.25" width="36" height="36" stroke="#A9EF2E" stroke-width="0.5"/>
<rect x="241.75" y="37.75" width="36" height="36" stroke="#A9EF2E" stroke-width="0.5"/>
<rect x="241.75" y="74.25" width="36" height="36" stroke="#A9EF2E" stroke-width="0.5"/>
<rect x="241.75" y="110.75" width="36" height="36" stroke="#A9EF2E" stroke-width="0.5"/>
<rect x="241.75" y="147.25" width="36" height="36" stroke="#A9EF2E" stroke-width="0.5"/>
<rect x="241.75" y="183.75" width="36" height="36" stroke="#A9EF2E" stroke-width="0.5"/>
<rect x="241.75" y="220.25" width="36" height="36" stroke="#A9EF2E" stroke-width="0.5"/>
<rect x="241.75" y="256.75" width="36" height="36" stroke="#A9EF2E" stroke-width="0.5"/>
<rect x="241.75" y="293.25" width="36" height="36" stroke="#A9EF2E" stroke-width="0.5"/>
<rect x="241.75" y="329.75" width="36" height="36" stroke="#A9EF2E" stroke-width="0.5"/>
<rect x="241.75" y="366.25" width="36" height="36" stroke="#A9EF2E" stroke-width="0.5"/>
<rect x="241.75" y="402.75" width="36" height="36" stroke="#A9EF2E" stroke-width="0.5"/>
<rect x="241.75" y="439.25" width="36" height="36" stroke="#A9EF2E" stroke-width="0.5"/>
<rect x="241.75" y="475.75" width="36" height="36" stroke="#A9EF2E" stroke-width="0.5"/>
<rect x="241.75" y="512.25" width="36" height="36" stroke="#A9EF2E" stroke-width="0.5"/>
<rect x="241.75" y="548.75" width="36" height="36" stroke="#A9EF2E" stroke-width="0.5"/>
<rect x="241.75" y="585.25" width="36" height="36" stroke="#A9EF2E" stroke-width="0.5"/>
<rect x="241.75" y="621.75" width="36" height="36" stroke="#A9EF2E" stroke-width="0.5"/>
<rect x="241.75" y="658.25" width="36" height="36" stroke="#A9EF2E" stroke-width="0.5"/>
<rect x="241.75" y="694.75" width="36" height="36" stroke="#A9EF2E" stroke-width="0.5"/>
<rect x="241.75" y="731.25" width="36" height="36" stroke="#A9EF2E" stroke-width="0.5"/>
<rect x="241.75" y="767.75" width="36" height="36" stroke="#A9EF2E" stroke-width="0.5"/>
<rect x="241.75" y="804.25" width="36" height="36" stroke="#A9EF2E" stroke-width="0.5"/>
<rect x="241.75" y="840.75" width="36" height="36" stroke="#A9EF2E" stroke-width="0.5"/>
<rect x="241.75" y="877.25" width="36" height="36" stroke="#A9EF2E" stroke-width="0.5"/>
<rect x="241.75" y="913.75" width="36" height="36" stroke="#A9EF2E" stroke-width="0.5"/>
<rect x="241.75" y="950.25" width="36" height="36" stroke="#A9EF2E" stroke-width="0.5"/>
<rect x="278.25" y="-35.25" width="36" height="36" stroke="#A9EF2E" stroke-width="0.5"/>
<rect x="278.25" y="1.25" width="36" height="36" stroke="#A9EF2E" stroke-width="0.5"/>
<rect x="278.25" y="37.75" width="36" height="36" stroke="#A9EF2E" stroke-width="0.5"/>
<rect x="278.25" y="74.25" width="36" height="36" stroke="#A9EF2E" stroke-width="0.5"/>
<rect x="278.25" y="110.75" width="36" height="36" stroke="#A9EF2E" stroke-width="0.5"/>
<rect x="278.25" y="147.25" width="36" height="36" stroke="#A9EF2E" stroke-width="0.5"/>
<rect x="278.25" y="183.75" width="36" height="36" stroke="#A9EF2E" stroke-width="0.5"/>
<rect x="278.25" y="220.25" width="36" height="36" stroke="#A9EF2E" stroke-width="0.5"/>
<rect x="278.25" y="256.75" width="36" height="36" stroke="#A9EF2E" stroke-width="0.5"/>
<rect x="278.25" y="293.25" width="36" height="36" stroke="#A9EF2E" stroke-width="0.5"/>
<rect x="278.25" y="329.75" width="36" height="36" stroke="#A9EF2E" stroke-width="0.5"/>
<rect x="278.25" y="366.25" width="36" height="36" stroke="#A9EF2E" stroke-width="0.5"/>
<rect x="278.25" y="402.75" width="36" height="36" stroke="#A9EF2E" stroke-width="0.5"/>
<rect x="278.25" y="439.25" width="36" height="36" stroke="#A9EF2E" stroke-width="0.5"/>
<rect x="278.25" y="475.75" width="36" height="36" stroke="#A9EF2E" stroke-width="0.5"/>
<rect x="278.25" y="512.25" width="36" height="36" stroke="#A9EF2E" stroke-width="0.5"/>
<rect x="278.25" y="548.75" width="36" height="36" stroke="#A9EF2E" stroke-width="0.5"/>
<rect x="278.25" y="585.25" width="36" height="36" stroke="#A9EF2E" stroke-width="0.5"/>
<rect x="278.25" y="621.75" width="36" height="36" stroke="#A9EF2E" stroke-width="0.5"/>
<rect x="278.25" y="658.25" width="36" height="36" stroke="#A9EF2E" stroke-width="0.5"/>
<rect x="278.25" y="694.75" width="36" height="36" stroke="#A9EF2E" stroke-width="0.5"/>
<rect x="278.25" y="731.25" width="36" height="36" stroke="#A9EF2E" stroke-width="0.5"/>
<rect x="278.25" y="767.75" width="36" height="36" stroke="#A9EF2E" stroke-width="0.5"/>
<rect x="278.25" y="804.25" width="36" height="36" stroke="#A9EF2E" stroke-width="0.5"/>
<rect x="278.25" y="840.75" width="36" height="36" stroke="#A9EF2E" stroke-width="0.5"/>
<rect x="278.25" y="877.25" width="36" height="36" stroke="#A9EF2E" stroke-width="0.5"/>
<rect x="278.25" y="913.75" width="36" height="36" stroke="#A9EF2E" stroke-width="0.5"/>
<rect x="278.25" y="950.25" width="36" height="36" stroke="#A9EF2E" stroke-width="0.5"/>
<rect x="314.75" y="-35.25" width="36" height="36" stroke="#A9EF2E" stroke-width="0.5"/>
<rect x="314.75" y="1.25" width="36" height="36" stroke="#A9EF2E" stroke-width="0.5"/>
<rect x="314.75" y="37.75" width="36" height="36" stroke="#A9EF2E" stroke-width="0.5"/>
<rect x="314.75" y="74.25" width="36" height="36" stroke="#A9EF2E" stroke-width="0.5"/>
<rect x="314.75" y="110.75" width="36" height="36" stroke="#A9EF2E" stroke-width="0.5"/>
<rect x="314.75" y="147.25" width="36" height="36" stroke="#A9EF2E" stroke-width="0.5"/>
<rect x="314.75" y="183.75" width="36" height="36" stroke="#A9EF2E" stroke-width="0.5"/>
<rect x="314.75" y="220.25" width="36" height="36" stroke="#A9EF2E" stroke-width="0.5"/>
<rect x="314.75" y="256.75" width="36" height="36" stroke="#A9EF2E" stroke-width="0.5"/>
<rect x="314.75" y="293.25" width="36" height="36" stroke="#A9EF2E" stroke-width="0.5"/>
<rect x="314.75" y="329.75" width="36" height="36" stroke="#A9EF2E" stroke-width="0.5"/>
<rect x="314.75" y="366.25" width="36" height="36" stroke="#A9EF2E" stroke-width="0.5"/>
<rect x="314.75" y="402.75" width="36" height="36" stroke="#A9EF2E" stroke-width="0.5"/>
<rect x="314.75" y="439.25" width="36" height="36" stroke="#A9EF2E" stroke-width="0.5"/>
<rect x="314.75" y="475.75" width="36" height="36" stroke="#A9EF2E" stroke-width="0.5"/>
<rect x="314.75" y="512.25" width="36" height="36" stroke="#A9EF2E" stroke-width="0.5"/>
<rect x="314.75" y="548.75" width="36" height="36" stroke="#A9EF2E" stroke-width="0.5"/>
<rect x="314.75" y="585.25" width="36" height="36" stroke="#A9EF2E" stroke-width="0.5"/>
<rect x="314.75" y="621.75" width="36" height="36" stroke="#A9EF2E" stroke-width="0.5"/>
<rect x="314.75" y="658.25" width="36" height="36" stroke="#A9EF2E" stroke-width="0.5"/>
<rect x="314.75" y="694.75" width="36" height="36" stroke="#A9EF2E" stroke-width="0.5"/>
<rect x="314.75" y="731.25" width="36" height="36" stroke="#A9EF2E" stroke-width="0.s"/>
<rect x="314.75" y="767.75" width="36" height="36" stroke="#A9EF2E" stroke-width="0.5"/>
<rect x="314.75" y="804.25" width="36" height="36" stroke="#A9EF2E" stroke-width="0.5"/>
<rect x="314.75" y="840.75" width="36" height="36" stroke="#A9EF2E" stroke-width="0.5"/>
<rect x="314.75" y="877.25" width="36" height="36" stroke="#A9EF2E" stroke-width="0.5"/>
<rect x="314.75" y="913.75" width="36" height="36" stroke="#A9EF2E" stroke-width="0.5"/>
<rect x="314.75" y="950.25" width="36" height="36" stroke="#A9EF2E" stroke-width="0.5"/>
<rect x="351.25" y="-35.25" width="36" height="36" stroke="#A9EF2E" stroke-width="0.5"/>
<rect x="351.25" y="1.25" width="36" height="36" stroke="#A9EF2E" stroke-width="0.5"/>
<rect x="351.25" y="37.75" width="36" height="36" stroke="#A9EF2E" stroke-width="0.5"/>
<rect x="351.25" y="74.25" width="36" height="36" stroke="#A9EF2E" stroke-width="0.5"/>
</svg>