<svg width="32" height="40" viewBox="0 0 32 40" fill="none" xmlns="http://www.w3.org/2000/svg">
<path fill-rule="evenodd" clip-rule="evenodd" d="M3.21018 28.2236C1.22579 25.5929 0.0488281 22.32 0.0488281 18.7742C0.0488281 10.102 7.08956 3.06125 15.7617 3.06125C17.2861 3.06125 18.7603 3.27885 20.1544 3.68458C23.9234 0.579959 27.2405 -0.733288 29.1158 0.51804C31.1071 1.84674 31.0523 5.78596 29.3517 10.8866C30.7013 13.2054 31.4746 15.9002 31.4746 18.7742C31.4746 27.4463 24.4339 34.4871 15.7617 34.4871C15.231 34.4871 14.7064 34.4607 14.1892 34.4092C9.59004 38.7999 5.37265 40.8917 3.16071 39.4157C1.06348 38.0163 1.23585 33.7213 3.21018 28.2236ZM23.9917 7.39905C21.2366 5.56069 15.5022 9.3098 11.1943 15.766C6.88627 22.2222 5.6254 28.9563 8.3805 30.7947C11.1355 32.6331 16.8698 28.8839 21.1779 22.4278C25.4859 15.9716 26.7467 9.2374 23.9917 7.39905Z" fill="#A9EF2E" stroke="#001667" stroke-width="0.0964555" stroke-miterlimit="1.5" stroke-linecap="round" stroke-linejoin="round"/>
</svg>
