<svg width="50" height="50" viewBox="0 0 50 50" fill="none" xmlns="http://www.w3.org/2000/svg">
<g clip-path="url(#clip0_709_18504)">
<path d="M24.3306 48.3115C24.3306 49.3256 23.4423 50.0836 22.4641 49.9924C9.87072 48.7242 0 38.0459 0 25.0787C0 12.1095 9.83861 1.43109 22.4641 0.162892C22.6991 0.139487 22.9363 0.165411 23.1607 0.239009C23.3851 0.312607 23.5917 0.432262 23.7673 0.590335C23.943 0.748409 24.0838 0.941427 24.1808 1.15707C24.2777 1.37271 24.3288 1.60624 24.3306 1.84274V10.436C24.3306 11.2594 23.7312 11.9915 22.9072 12.1159C16.6731 13.0968 11.8945 18.518 11.8945 25.0509C11.8945 31.5837 16.6731 36.9985 22.9072 37.9858C23.7312 38.1091 24.3306 38.8424 24.3306 39.6657V48.3115Z" fill="white"/>
<path d="M49.8646 27.4511C48.7548 39.2422 39.4513 48.691 27.7141 49.9527C26.7027 50.0514 25.8145 49.2859 25.8145 48.2729V39.6539C25.8145 38.8295 26.4149 38.1305 27.2058 37.9729C32.7089 37.0253 37.0433 32.585 37.8652 27.0394C37.9894 26.2161 38.7214 25.6136 39.5433 25.6136H48.1223C49.1733 25.5815 49.9631 26.4713 49.8646 27.4511Z" fill="white"/>
<path d="M24.3574 13.7916V23.8686C24.3574 24.8163 25.1141 25.5817 26.0676 25.5817H36.2584C37.2697 25.5817 38.0606 24.6919 37.9365 23.6789C37.2119 17.5898 32.9685 12.8697 26.2571 12.1118C26.0194 12.0825 25.7782 12.1041 25.5494 12.1751C25.3207 12.2461 25.1095 12.3649 24.93 12.5237C24.7505 12.6824 24.6066 12.8775 24.5079 13.0961C24.4092 13.3147 24.3579 13.5518 24.3574 13.7916Z" fill="white"/>
<path d="M36.3242 1.77955C36.3242 2.41204 36.6699 2.98235 37.2125 3.30182C41.174 5.5569 44.4535 8.84228 46.7044 12.8106C47.0179 13.3466 47.5927 13.7004 48.2252 13.7004H48.2573C49.2044 13.7004 50.0017 12.9082 50.0017 11.953V1.74739C50.0017 0.797581 49.2098 0 48.2573 0H38.0612C37.114 0.0321605 36.3242 0.797581 36.3242 1.77955Z" fill="white"/>
</g>
<defs>
<clipPath id="clip0_709_18504">
<rect width="50" height="50" fill="white"/>
</clipPath>
</defs>
</svg>
