<svg width="327" height="50" viewBox="0 0 327 50" fill="none" xmlns="http://www.w3.org/2000/svg">
<g clip-path="url(#clip0_709_18509)">
<path d="M21.9428 12.5946C21.8383 11.337 21.3712 10.3602 20.5291 9.65202C19.687 8.94994 18.4147 8.59585 16.706 8.59585C15.6181 8.59585 14.7269 8.72406 14.0385 8.98047C13.3501 9.23688 12.8399 9.58486 12.508 10.0244C12.1761 10.464 12.0101 10.9646 11.9978 11.5324C11.9733 11.9963 12.0593 12.4176 12.256 12.7839C12.4527 13.1563 12.7662 13.486 13.1964 13.7851C13.6267 14.0781 14.1798 14.3468 14.8498 14.5849C15.5198 14.823 16.3188 15.0366 17.2408 15.2259L20.4308 15.9035C22.582 16.3553 24.4259 16.9536 25.9564 17.6923C27.4869 18.431 28.7407 19.304 29.7119 20.3053C30.683 21.3065 31.4021 22.4237 31.8631 23.6691C32.3241 24.9145 32.5638 26.2698 32.5761 27.7411C32.5638 30.2808 31.9246 32.4298 30.6584 34.188C29.3923 35.9463 27.5852 37.2894 25.2373 38.2051C22.8893 39.1209 20.0681 39.5788 16.7798 39.5788C13.4914 39.5788 10.4551 39.0843 7.9412 38.0891C5.4273 37.094 3.47888 35.5678 2.09594 33.4982C0.712987 31.4286 0.0122929 28.7973 0 25.5617H10.0187C10.0802 26.746 10.3813 27.735 10.9099 28.5409C11.4385 29.3468 12.1884 29.9573 13.1595 30.3724C14.1307 30.7875 15.28 30.9951 16.6261 30.9951C17.7509 30.9951 18.6975 30.8547 19.4535 30.58C20.2095 30.3053 20.7873 29.9206 21.1806 29.4322C21.574 28.9438 21.7768 28.3822 21.7891 27.7534C21.7768 27.1612 21.5863 26.6422 21.2114 26.1966C20.8364 25.7509 20.2279 25.348 19.3797 24.9878C18.5315 24.6276 17.3883 24.2918 15.9439 23.9805L12.0716 23.1502C8.6296 22.4115 5.91902 21.1661 3.93987 19.4261C1.96071 17.6862 0.977284 15.3053 0.989576 12.2894C0.977284 9.84127 1.63495 7.69231 2.97488 5.8486C4.30865 4.00489 6.16488 2.57021 8.5374 1.53846C10.9099 0.506717 13.6328 -0.00610352 16.706 -0.00610352C19.7792 -0.00610352 22.5574 0.512822 24.85 1.55678C27.1427 2.60073 28.9067 4.06594 30.1544 5.95849C31.4021 7.85104 32.0291 10.0611 32.0414 12.5824H21.9428V12.5946Z" fill="white"/>
<path d="M44.0702 39.591C42.2078 39.591 40.5667 39.2858 39.1469 38.6753C37.7209 38.0648 36.6084 37.1368 35.7971 35.8975C34.9857 34.6521 34.5801 33.0709 34.5801 31.1478C34.5801 29.5666 34.8505 28.2113 35.3976 27.088C35.9384 25.9646 36.7006 25.0428 37.6779 24.3285C38.6552 23.6142 39.7861 23.0648 41.083 22.6862C42.3799 22.3077 43.7813 22.0635 45.2872 21.9536C46.9221 21.8254 48.2313 21.6728 49.227 21.4897C50.2228 21.3065 50.9357 21.0501 51.3844 20.7143C51.827 20.3847 52.0483 19.939 52.0483 19.3834V19.3102C52.0483 18.5532 51.7594 17.9793 51.1755 17.5764C50.5916 17.1734 49.8478 16.972 48.9382 16.972C47.9363 16.972 47.125 17.1917 46.498 17.6252C45.8711 18.0587 45.4962 18.7241 45.3671 19.6154H35.7233C35.8524 17.8572 36.4179 16.2333 37.4197 14.7436C38.4216 13.254 39.8967 12.0635 41.8329 11.16C43.769 10.2626 46.1846 9.81079 49.0857 9.81079C51.1755 9.81079 53.044 10.055 54.7035 10.5373C56.3631 11.0196 57.7706 11.6911 58.9384 12.5519C60.1001 13.4127 60.9913 14.4201 61.606 15.5678C62.2206 16.7156 62.5279 17.9671 62.5279 19.3102V39.1453H52.7367V35.0733H52.5092C51.9253 36.1539 51.2185 37.0269 50.3949 37.6924C49.5651 38.3578 48.6247 38.8401 47.5675 39.1453C46.5103 39.4445 45.3486 39.5971 44.0825 39.5971L44.0702 39.591ZM47.4876 33.0281C48.2866 33.0281 49.0365 32.8633 49.7372 32.5397C50.4379 32.2101 51.0095 31.74 51.452 31.1234C51.8946 30.5068 52.1159 29.762 52.1159 28.8828V26.4714C51.8393 26.5873 51.5442 26.6911 51.2308 26.7949C50.9173 26.8987 50.5915 26.9903 50.2412 27.0757C49.8909 27.1612 49.5282 27.2467 49.141 27.3199C48.7538 27.3932 48.3542 27.4665 47.9363 27.5275C47.125 27.6557 46.4673 27.8572 45.951 28.138C45.4408 28.4188 45.0598 28.7668 44.8139 29.1759C44.568 29.5849 44.4451 30.0428 44.4451 30.5434C44.4451 31.3493 44.7278 31.9659 45.2995 32.3932C45.8711 32.8206 46.5964 33.0342 47.4815 33.0342L47.4876 33.0281Z" fill="white"/>
<path d="M85.7357 26.4713V10.1831H96.2153V39.1391H86.2704V33.6324H85.9692C85.3361 35.4822 84.2298 36.923 82.6501 37.9609C81.0705 38.9987 79.1897 39.5177 77.0139 39.5177C74.9794 39.5177 73.1969 39.0537 71.6726 38.1196C70.1483 37.1917 68.962 35.9096 68.1261 34.2735C67.284 32.6373 66.8599 30.7692 66.8477 28.6569V10.1831H77.3273V26.4713C77.3396 27.9059 77.7084 29.0293 78.4398 29.8473C79.1651 30.6654 80.1916 31.0744 81.5069 31.0744C82.3797 31.0744 83.1357 30.8913 83.7749 30.5189C84.4142 30.1465 84.9059 29.6214 85.2562 28.9377C85.6066 28.2539 85.7725 27.4297 85.7602 26.4774L85.7357 26.4713Z" fill="white"/>
<path d="M114.557 39.6643C111.392 39.6643 108.687 39.0416 106.432 37.79C104.182 36.5385 102.455 34.7925 101.25 32.5519C100.045 30.3114 99.4492 27.7046 99.4492 24.7375C99.4492 21.7705 100.052 19.1637 101.25 16.9231C102.455 14.6826 104.182 12.9304 106.432 11.685C108.681 10.4335 111.392 9.81079 114.557 9.81079C117.415 9.81079 119.892 10.3236 121.988 11.3493C124.084 12.3749 125.707 13.8218 126.856 15.6838C128.006 17.5519 128.589 19.7436 128.602 22.2528H118.884C118.743 20.7326 118.306 19.5727 117.563 18.7729C116.825 17.9732 115.872 17.5764 114.705 17.5764C113.795 17.5764 112.996 17.8389 112.314 18.3578C111.631 18.8767 111.097 19.6643 110.722 20.7143C110.341 21.7644 110.15 23.0831 110.15 24.6643C110.15 26.2455 110.341 27.5641 110.722 28.6142C111.103 29.6643 111.631 30.4518 112.314 30.9707C112.996 31.4897 113.795 31.7522 114.705 31.7522C115.479 31.7522 116.161 31.5751 116.751 31.2149C117.348 30.8547 117.827 30.3297 118.202 29.6337C118.577 28.9378 118.798 28.0831 118.878 27.0819H128.596C128.559 29.6337 127.969 31.856 126.832 33.7485C125.695 35.6411 124.084 37.1002 122 38.1319C119.917 39.1637 117.434 39.6765 114.551 39.6765L114.557 39.6643Z" fill="white"/>
<path d="M145.622 39.6643C142.512 39.6643 139.832 39.0721 137.583 37.8816C135.339 36.6911 133.612 34.9817 132.401 32.7534C131.19 30.5251 130.588 27.8511 130.588 24.7314C130.588 21.6118 131.196 19.127 132.407 16.8865C133.624 14.6521 135.339 12.906 137.552 11.6667C139.765 10.4213 142.377 9.79858 145.389 9.79858C147.589 9.79858 149.58 10.1405 151.369 10.8181C153.151 11.4958 154.676 12.4787 155.942 13.7668C157.208 15.055 158.179 16.6179 158.868 18.4494C159.556 20.2809 159.894 22.3505 159.894 24.6521V27.0635H133.852V21.3309H150.25C150.238 20.5007 150.023 19.7681 149.617 19.1331C149.205 18.4982 148.658 18.0037 147.964 17.6435C147.275 17.2833 146.495 17.1063 145.622 17.1063C144.749 17.1063 143.993 17.2833 143.286 17.6435C142.58 18.0037 142.014 18.4921 141.59 19.1209C141.166 19.7497 140.938 20.4823 140.914 21.3248V27.5092C140.914 28.4372 141.111 29.2674 141.504 30C141.897 30.7265 142.457 31.3004 143.194 31.7156C143.926 32.1307 144.811 32.3383 145.849 32.3383C146.569 32.3383 147.232 32.2406 147.835 32.0391C148.437 31.8377 148.953 31.5446 149.384 31.16C149.814 30.7754 150.127 30.3175 150.33 29.7742H159.894C159.562 31.7827 158.788 33.5287 157.558 35.0062C156.329 36.4836 154.707 37.6252 152.69 38.4372C150.674 39.2491 148.314 39.6521 145.622 39.6521V39.6643Z" fill="white"/>
<path d="M163.133 39.1392V10.1771H173.305V15.6838H173.606C174.135 13.6508 174.983 12.1612 176.139 11.2149C177.294 10.2687 178.653 9.79858 180.208 9.79858C180.662 9.79858 181.117 9.83521 181.566 9.90237C182.015 9.96952 182.451 10.0672 182.869 10.1954V19.0721C182.353 18.895 181.713 18.7668 180.951 18.6753C180.195 18.5898 179.538 18.541 178.997 18.541C177.97 18.541 177.048 18.7729 176.237 19.2308C175.42 19.6887 174.78 20.3297 174.313 21.1539C173.846 21.9781 173.612 22.9427 173.612 24.0477V39.1331H163.133V39.1392Z" fill="white"/>
<path d="M206.306 12.5946C206.202 11.337 205.734 10.3602 204.892 9.65202C204.05 8.94994 202.778 8.59585 201.069 8.59585C199.981 8.59585 199.09 8.72406 198.402 8.98047C197.713 9.23688 197.203 9.58486 196.871 10.0244C196.539 10.464 196.373 10.9646 196.361 11.5324C196.337 11.9963 196.423 12.4176 196.619 12.7839C196.816 13.1563 197.129 13.486 197.56 13.7851C197.99 14.0781 198.537 14.3468 199.213 14.5849C199.883 14.823 200.682 15.0366 201.604 15.2259L204.794 15.9035C206.945 16.3553 208.789 16.9536 210.32 17.6923C211.85 18.431 213.104 19.304 214.075 20.3053C215.046 21.3065 215.765 22.4237 216.226 23.6691C216.687 24.9145 216.927 26.2698 216.939 27.7411C216.927 30.2808 216.288 32.4298 215.022 34.188C213.756 35.9463 211.948 37.2894 209.601 38.2051C207.253 39.1209 204.431 39.5788 201.143 39.5788C197.855 39.5788 194.818 39.0843 192.304 38.0891C189.791 37.094 187.842 35.5678 186.459 33.4982C185.076 31.4286 184.376 28.779 184.363 25.5495H194.388C194.45 26.7338 194.751 27.7228 195.279 28.5287C195.814 29.3346 196.558 29.9451 197.529 30.3602C198.5 30.7753 199.649 30.9829 200.996 30.9829C202.12 30.9829 203.067 30.8425 203.823 30.5678C204.579 30.293 205.157 29.9084 205.55 29.42C205.943 28.9316 206.146 28.37 206.159 27.7411C206.146 27.149 205.956 26.63 205.581 26.1844C205.206 25.7387 204.597 25.3358 203.749 24.9756C202.901 24.6154 201.758 24.2796 200.313 23.9683L196.441 23.138C192.999 22.3993 190.288 21.1538 188.309 19.4139C186.33 17.674 185.347 15.293 185.359 12.2772C185.347 9.82906 186.004 7.6801 187.344 5.83639C188.678 3.99268 190.534 2.558 192.907 1.52626C195.279 0.49451 198.002 -0.0183105 201.075 -0.0183105C204.149 -0.0183105 206.927 0.500615 209.219 1.54457C211.512 2.58853 213.276 4.05373 214.524 5.94628C215.772 7.83883 216.399 10.0488 216.411 12.5702H206.312L206.306 12.5946Z" fill="white"/>
<path d="M225.445 39.1392L218.155 10.1831H228.635L231.972 27.8327H232.2L235.918 10.1831H246.091L249.963 27.6801H250.191L253.381 10.1831H263.86L256.571 39.1392H245.261L241.161 23.6019H240.86L236.761 39.1392H225.445Z" fill="white"/>
<path d="M273.215 39.591C271.352 39.591 269.711 39.2858 268.291 38.6753C266.865 38.0648 265.753 37.1368 264.942 35.8975C264.13 34.6521 263.725 33.0709 263.725 31.1478C263.725 29.5666 263.995 28.2113 264.542 27.088C265.083 25.9646 265.845 25.0428 266.822 24.3285C267.8 23.6142 268.931 23.0648 270.228 22.6862C271.524 22.3077 272.926 22.0635 274.432 21.9536C276.067 21.8254 277.376 21.6728 278.372 21.4897C279.367 21.3065 280.08 21.0501 280.529 20.7143C280.972 20.3847 281.193 19.939 281.193 19.3834V19.3102C281.193 18.5532 280.904 17.9793 280.32 17.5764C279.736 17.1734 278.992 16.972 278.083 16.972C277.081 16.972 276.269 17.1917 275.643 17.6252C275.016 18.0587 274.641 18.7241 274.512 19.6154H264.868C264.997 17.8572 265.562 16.2333 266.564 14.7436C267.566 13.254 269.041 12.0574 270.977 11.16C272.914 10.2626 275.329 9.81079 278.23 9.81079C280.32 9.81079 282.189 10.055 283.848 10.5373C285.508 11.0196 286.915 11.6911 288.083 12.5519C289.251 13.4127 290.136 14.4201 290.75 15.5678C291.365 16.7156 291.672 17.9671 291.672 19.3102V39.1453H281.881V35.0733H281.654C281.07 36.1539 280.369 37.0269 279.539 37.6924C278.71 38.3578 277.769 38.8401 276.712 39.1453C275.655 39.4445 274.493 39.5971 273.227 39.5971L273.215 39.591ZM276.632 33.0281C277.431 33.0281 278.181 32.8633 278.882 32.5397C279.582 32.2101 280.154 31.74 280.597 31.1234C281.039 30.5068 281.26 29.762 281.26 28.8828V26.4714C280.984 26.5873 280.689 26.6911 280.375 26.7949C280.068 26.8987 279.736 26.9903 279.386 27.0757C279.035 27.1612 278.673 27.2467 278.286 27.3199C277.898 27.3932 277.499 27.4665 277.081 27.5275C276.269 27.6557 275.612 27.8572 275.096 28.138C274.585 28.4188 274.204 28.7668 273.958 29.1759C273.713 29.5849 273.59 30.0428 273.59 30.5434C273.59 31.3493 273.872 31.9659 274.444 32.3932C275.016 32.8206 275.741 33.0342 276.626 33.0342L276.632 33.0281Z" fill="white"/>
<path d="M295.871 50V10.1771H306.271V15.232H306.498C306.879 14.2491 307.433 13.3517 308.17 12.5275C308.902 11.7033 309.817 11.044 310.905 10.5495C311.993 10.055 313.259 9.80469 314.704 9.80469C316.628 9.80469 318.459 10.3114 320.199 11.3309C321.938 12.3505 323.358 13.95 324.452 16.1417C325.546 18.3273 326.093 21.1722 326.093 24.6643C326.093 28.1563 325.571 30.7815 324.526 32.9793C323.481 35.1771 322.092 36.8193 320.352 37.8999C318.613 38.9805 316.708 39.5239 314.63 39.5239C313.266 39.5239 312.042 39.298 310.979 38.8523C309.916 38.4066 309 37.7961 308.244 37.0208C307.488 36.2455 306.91 35.3725 306.504 34.3895H306.351V50H295.871ZM306.123 24.6643C306.123 26.0745 306.308 27.2894 306.683 28.3151C307.058 29.3407 307.586 30.1344 308.275 30.6899C308.963 31.2516 309.787 31.5324 310.752 31.5324C311.717 31.5324 312.534 31.2577 313.21 30.7143C313.886 30.1649 314.409 29.3834 314.765 28.3578C315.128 27.3322 315.306 26.1051 315.306 24.6704C315.306 23.2357 315.128 22.0086 314.765 20.983C314.403 19.9573 313.886 19.1759 313.21 18.6264C312.534 18.077 311.71 17.8084 310.752 17.8084C309.793 17.8084 308.963 18.0831 308.275 18.6264C307.586 19.1698 307.051 19.9573 306.683 20.983C306.308 22.0086 306.123 23.2357 306.123 24.6704V24.6643Z" fill="white"/>
</g>
<defs>
<clipPath id="clip0_709_18509">
<rect width="326.087" height="50" fill="white"/>
</clipPath>
</defs>
</svg>
