<svg width="53" height="50" viewBox="0 0 53 50" fill="none" xmlns="http://www.w3.org/2000/svg">
<g clip-path="url(#clip0_709_18520)">
<path d="M37.749 1.4737V16.0154L27.0864 22.7946C26.54 23.142 25.841 23.142 25.2945 22.7946L14.6319 16.0154V1.39319C14.6319 0.295793 13.4204 -0.369426 12.4926 0.219526L1.29205 7.34204C0.487167 7.85472 0 8.74026 0 9.69361V40.3064C0 41.2598 0.487167 42.1452 1.29205 42.658L12.4926 49.7805C13.4204 50.3694 14.6319 49.7042 14.6319 48.6068V34.0017L25.2945 27.2181C25.841 26.8707 26.54 26.8707 27.0864 27.2181L37.749 34.0017V48.5008C37.749 49.5983 38.9606 50.2635 39.8883 49.6745L51.0889 42.552C51.8938 42.0394 52.381 41.1538 52.381 40.2005V9.76987C52.381 8.81654 51.8938 7.93099 51.0889 7.4183L39.8883 0.295793C38.9606 -0.293158 37.749 0.372061 37.749 1.46946V1.4737ZM49.6146 38.2642L40.5111 32.4763V17.5364L49.6146 11.7443V38.2642ZM40.5111 3.97357L48.598 9.11737L40.5111 14.2569V3.97357ZM11.8657 3.89306V14.2612L3.71517 9.07499L11.8657 3.88882V3.89306ZM11.8657 32.4806L2.76202 38.2683V11.7443L11.8657 17.5364V32.4763V32.4806ZM11.8657 46.1069L3.72788 40.9335L11.8657 35.76V46.1112V46.1069ZM14.6319 30.7221V19.299L23.617 25.0106L14.6319 30.7221ZM28.7682 25.0106L37.7532 19.299V30.7221L28.7682 25.0106ZM40.5152 46.0052V35.76L48.5726 40.8826L40.5152 46.0052Z" fill="white"/>
</g>
<defs>
<clipPath id="clip0_709_18520">
<rect width="52.381" height="50" fill="white"/>
</clipPath>
</defs>
</svg>
