<svg width="179" height="39" viewBox="0 0 179 39" fill="none" xmlns="http://www.w3.org/2000/svg">
<path d="M3.34659 28.7089C3.56919 28.5892 3.67845 28.6077 3.75882 28.5314C7.25181 25.0319 11.2604 22.2043 15.1782 19.2488C19.2238 16.2026 23.2694 13.1565 27.6635 10.574C30.1451 9.19613 32.641 7.86564 35.3722 7.13694C36.1926 6.93874 37.0749 6.77354 37.9675 6.81244C39.7383 6.84274 40.8354 8.06274 40.7103 9.86244C40.6755 10.5983 40.4841 11.3302 40.1833 12.0436C39.7467 13.1611 39.1863 14.2126 38.6878 15.2971C38.4386 15.8394 38.1893 16.3816 38.0019 16.9568C37.6746 18.0928 38.0953 18.7936 39.1839 19.1354C40.2725 19.4772 41.3877 19.3964 42.4596 19.1734C44.0056 18.8059 45.3411 18.0881 46.6334 17.228C49.4734 15.3264 52.0557 13.0888 54.2708 10.4967C55.192 9.43894 56.1275 8.42854 57.0631 7.41804C57.3701 7.06544 57.8009 6.77874 58.2131 6.60134C58.4357 6.48164 58.9346 6.58874 59.0398 6.76384C59.2068 6.97204 59.1328 7.40904 59.1246 7.72244C59.1061 7.83174 58.9783 7.92244 58.898 7.99874C57.505 9.71854 56.0791 11.5001 54.5295 13.2157C51.9454 16.1274 48.9798 18.6372 45.5131 20.5226C43.8601 21.389 42.106 21.9235 40.2444 21.7654C39.3992 21.7121 38.5106 21.5166 37.7354 21.1829C35.9375 20.3837 35.1041 18.6688 35.5611 16.768C35.7896 15.8176 36.2366 14.9042 36.6362 14.0053C37.0729 12.8878 37.5714 11.8033 38.0225 10.7333C38.1399 10.4384 38.1191 10.0303 38.1746 9.70254C37.5561 9.37284 37.0161 9.64104 36.4801 9.75254C33.5738 10.5864 30.8737 11.9273 28.3366 13.633C23.0873 17.1496 17.9143 20.7466 12.7268 24.2961C10.7153 25.6863 8.68931 27.029 6.50263 28.5243C6.87781 28.5654 7.09631 28.6024 7.36231 28.625C8.34971 28.635 9.32271 28.5975 10.3246 28.6549C10.7472 28.6816 11.1843 28.7556 11.6028 28.939C12.0688 29.1078 12.3555 29.5386 12.1866 30.0045C12.0836 30.3468 11.7622 30.652 11.4592 30.8479C11.1562 31.0439 10.7955 31.0502 10.4347 31.0565C7.62501 31.1873 4.8297 31.3656 2.00552 31.449C0.562503 31.4743 -0.229407 30.5757 0.0587034 29.1409C0.188313 28.376 0.460143 27.5678 0.884583 26.9204C2.31232 24.4647 3.84933 22.0275 5.40079 19.6377C5.67893 19.1903 6.11374 18.7469 6.53004 18.4128C7.04121 18.0498 7.53601 18.3135 7.41051 18.9217C7.24791 19.7484 7.05241 20.637 6.67131 21.4266C5.82463 23.2389 4.9017 24.9709 4.04061 26.7358C3.82433 27.2162 3.5936 27.6492 3.37731 28.1296C3.42065 28.2718 3.41658 28.4285 3.34659 28.7089Z" fill="white"/>
<path d="M74.6244 10.548C74.0831 10.548 73.5371 10.478 72.9864 10.338C72.4358 10.1887 71.9364 10.002 71.4884 9.778C71.3391 10.31 71.1991 10.8933 71.0684 11.528C70.9378 12.1627 70.8164 12.844 70.7044 13.572C70.6018 14.0947 70.4991 14.4353 70.3964 14.594C70.2938 14.7527 70.1631 14.832 70.0044 14.832C69.8458 14.832 69.7198 14.7573 69.6264 14.608C69.5331 14.4493 69.4864 14.1553 69.4864 13.726C69.4864 13.642 69.5098 13.446 69.5564 13.138C69.6031 12.83 69.6638 12.452 69.7384 12.004C69.8224 11.5467 69.9111 11.0567 70.0044 10.534C70.0978 10.002 70.1911 9.47 70.2844 8.938C70.0604 8.69533 69.9484 8.46667 69.9484 8.252C69.9484 8.14933 69.9764 8.05133 70.0324 7.958C70.0884 7.85533 70.2051 7.804 70.3824 7.804C70.4104 7.804 70.4431 7.80867 70.4804 7.818C70.5831 7.258 70.6671 6.75867 70.7324 6.32C70.8071 5.872 70.8491 5.55 70.8584 5.354C70.8771 5.018 70.9424 4.78467 71.0544 4.654C71.1664 4.514 71.2971 4.444 71.4464 4.444C71.5678 4.444 71.6658 4.49533 71.7404 4.598C71.8151 4.69133 71.8524 4.92933 71.8524 5.312C71.8524 5.55467 71.8338 5.88133 71.7964 6.292C72.2538 5.35867 72.7298 4.696 73.2244 4.304C73.7284 3.912 74.2884 3.716 74.9044 3.716C75.4644 3.716 75.9451 3.87 76.3464 4.178C76.7478 4.47667 77.0558 4.90133 77.2704 5.452C77.4851 6.00267 77.5924 6.65133 77.5924 7.398C77.5924 8.45267 77.3358 9.24133 76.8224 9.764C76.3091 10.2867 75.5764 10.548 74.6244 10.548ZM71.8524 8.616C72.2071 8.82133 72.6038 9.01267 73.0424 9.19C73.4811 9.358 73.9338 9.442 74.4004 9.442C75.1564 9.442 75.7071 9.274 76.0524 8.938C76.4071 8.59267 76.5844 8.03733 76.5844 7.272C76.5844 6.38533 76.4444 5.75533 76.1644 5.382C75.8844 5.00867 75.5018 4.822 75.0164 4.822C74.4658 4.822 73.9151 5.13 73.3644 5.746C72.8138 6.35267 72.3098 7.30933 71.8524 8.616ZM81.6331 15.56C80.9144 15.56 80.3497 15.3267 79.9391 14.86C79.5377 14.384 79.3371 13.7213 79.3371 12.872C79.3371 12.3493 79.4071 11.738 79.5471 11.038C79.6964 10.3287 79.8831 9.582 80.1071 8.798C80.3404 8.00467 80.5924 7.22067 80.8631 6.446C81.1337 5.67133 81.3951 4.95267 81.6471 4.29C81.9084 3.618 82.1371 3.058 82.3331 2.61C82.4451 2.358 82.6037 2.232 82.8091 2.232C83.0891 2.232 83.2291 2.40467 83.2291 2.75C83.2291 2.862 83.1777 3.09067 83.0751 3.436C82.9724 3.78133 82.8371 4.21067 82.6691 4.724C82.5011 5.228 82.3191 5.788 82.1231 6.404C81.9271 7.02 81.7264 7.65467 81.5211 8.308C81.3251 8.952 81.1431 9.59133 80.9751 10.226C80.8071 10.8513 80.6717 11.4393 80.5691 11.99C80.4664 12.5407 80.4151 13.012 80.4151 13.404C80.4151 13.656 80.4804 13.8567 80.6111 14.006C80.7511 14.146 80.9377 14.216 81.1711 14.216C81.6004 14.216 82.0297 14.132 82.4591 13.964C82.8977 13.7867 83.3177 13.572 83.7191 13.32C84.1204 13.0587 84.4844 12.802 84.8111 12.55C85.1471 12.2887 85.4317 12.074 85.6651 11.906C85.8984 11.7287 86.0617 11.64 86.1551 11.64C86.3604 11.64 86.4631 11.752 86.4631 11.976C86.4631 12.0507 86.3884 12.1907 86.2391 12.396C86.0897 12.592 85.8891 12.8253 85.6371 13.096C85.3851 13.3667 85.0911 13.6467 84.7551 13.936C84.4284 14.216 84.0831 14.482 83.7191 14.734C83.3644 14.9767 83.0051 15.1727 82.6411 15.322C82.2864 15.4807 81.9504 15.56 81.6331 15.56ZM86.3427 15.364C85.988 15.364 85.694 15.2007 85.4607 14.874C85.2367 14.538 85.1247 14.104 85.1247 13.572C85.1247 13.0773 85.246 12.5873 85.4887 12.102C85.7407 11.6167 86.072 11.15 86.4827 10.702C86.8933 10.254 87.3413 9.84333 87.8267 9.47C88.312 9.08733 88.7973 8.756 89.2827 8.476C89.7773 8.196 90.23 7.97667 90.6407 7.818C91.0513 7.65933 91.378 7.58 91.6207 7.58C91.7513 7.58 91.8587 7.608 91.9427 7.664C92.0267 7.71067 92.0687 7.79933 92.0687 7.93C92.0687 8.014 92.036 8.09333 91.9707 8.168C91.98 8.168 91.9893 8.168 91.9987 8.168C92.204 8.168 92.3067 8.28933 92.3067 8.532C92.3067 8.616 92.274 8.78867 92.2087 9.05C92.1433 9.302 92.0687 9.61933 91.9847 10.002C91.9007 10.3847 91.826 10.8093 91.7607 11.276C91.6953 11.7333 91.6627 12.2 91.6627 12.676C91.6627 13.0773 91.8167 13.278 92.1247 13.278C92.47 13.278 92.82 13.1987 93.1747 13.04C93.5293 12.8813 93.8747 12.69 94.2107 12.466C94.5467 12.2327 94.8547 12.004 95.1347 11.78C95.4147 11.5467 95.6527 11.3507 95.8487 11.192C96.0447 11.0333 96.1847 10.954 96.2687 10.954C96.3433 10.954 96.4087 10.9773 96.4647 11.024C96.5207 11.0707 96.5487 11.1453 96.5487 11.248C96.5487 11.3413 96.4553 11.5093 96.2687 11.752C96.082 11.9947 95.8347 12.27 95.5267 12.578C95.2187 12.886 94.8733 13.1847 94.4907 13.474C94.108 13.7633 93.716 14.0013 93.3147 14.188C92.9133 14.3747 92.5307 14.468 92.1667 14.468C91.8867 14.468 91.63 14.384 91.3967 14.216C91.1727 14.0387 90.9907 13.74 90.8507 13.32C90.72 12.9 90.6547 12.3213 90.6547 11.584V11.234C90.1973 11.99 89.7167 12.6807 89.2127 13.306C88.718 13.9313 88.2233 14.4307 87.7287 14.804C87.2433 15.1773 86.7813 15.364 86.3427 15.364ZM91.3547 8.588C91.308 8.60667 91.2427 8.63467 91.1587 8.672C90.7293 8.868 90.2813 9.11067 89.8147 9.4C89.3573 9.68933 88.9093 10.0113 88.4707 10.366C88.0413 10.7207 87.654 11.0893 87.3087 11.472C86.9633 11.8547 86.688 12.242 86.4827 12.634C86.2773 13.026 86.1747 13.4087 86.1747 13.782C86.1747 13.9033 86.198 13.9967 86.2447 14.062C86.3007 14.1273 86.394 14.16 86.5247 14.16C86.7113 14.16 86.954 14.0433 87.2527 13.81C87.5513 13.5673 87.878 13.25 88.2327 12.858C88.5967 12.466 88.9607 12.032 89.3247 11.556C89.6887 11.08 90.034 10.5993 90.3607 10.114C90.6967 9.62867 90.986 9.18067 91.2287 8.77C91.266 8.70467 91.308 8.644 91.3547 8.588ZM96.9271 18.598C96.4604 18.598 96.0311 18.5653 95.6391 18.5C95.2564 18.444 94.8784 18.3507 94.5051 18.22C94.1318 18.0987 93.7258 17.94 93.2871 17.744C93.1564 17.6787 93.0398 17.5993 92.9371 17.506C92.8344 17.422 92.7831 17.324 92.7831 17.212C92.7831 17.072 92.8718 16.9227 93.0491 16.764C93.2171 16.6147 93.3758 16.54 93.5251 16.54C93.6838 16.54 93.8798 16.596 94.1131 16.708C94.3558 16.82 94.6358 16.9507 94.9531 17.1C95.2704 17.2587 95.6204 17.394 96.0031 17.506C96.3951 17.618 96.8151 17.674 97.2631 17.674C97.7484 17.674 98.2058 17.4733 98.6351 17.072C99.0644 16.6707 99.4144 16.092 99.6851 15.336C99.9558 14.5893 100.091 13.6887 100.091 12.634C100.091 12.3167 100.082 11.9667 100.063 11.584C100.054 11.192 100.035 10.7813 100.007 10.352C99.7831 10.8373 99.5311 11.318 99.2511 11.794C98.9804 12.27 98.6958 12.6993 98.3971 13.082C98.1078 13.4647 97.8044 13.7727 97.4871 14.006C97.1791 14.23 96.8664 14.342 96.5491 14.342C96.1478 14.342 95.8584 14.2393 95.6811 14.034C95.5038 13.8287 95.4151 13.5113 95.4151 13.082C95.4151 12.634 95.4478 12.1487 95.5131 11.626C95.5784 11.1033 95.6624 10.576 95.7651 10.044C95.8771 9.50267 96.0078 8.98933 96.1571 8.504C96.3064 8.01867 96.4651 7.59867 96.6331 7.244C96.7264 7.05733 96.8664 6.964 97.0531 6.964C97.1838 6.964 97.3098 7.034 97.4311 7.174C97.5618 7.30467 97.6271 7.47733 97.6271 7.692C97.6271 7.86 97.5898 8.098 97.5151 8.406C97.4404 8.714 97.3471 9.064 97.2351 9.456C97.1231 9.848 97.0111 10.2587 96.8991 10.688C96.7871 11.108 96.6938 11.5233 96.6191 11.934C96.5444 12.3353 96.5071 12.704 96.5071 13.04C96.5071 13.18 96.6004 13.25 96.7871 13.25C96.8898 13.25 97.0344 13.1567 97.2211 12.97C97.4171 12.774 97.6318 12.522 97.8651 12.214C98.1078 11.8967 98.3504 11.5513 98.5931 11.178C98.8451 10.7953 99.0878 10.4173 99.3211 10.044C99.5544 9.66133 99.7551 9.31133 99.9231 8.994C99.9138 8.91933 99.9091 8.84933 99.9091 8.784C99.9091 8.71867 99.9091 8.658 99.9091 8.602C99.9091 8.14467 99.9558 7.86 100.049 7.748C100.152 7.62667 100.282 7.566 100.441 7.566C100.712 7.566 100.903 7.62667 101.015 7.748C101.127 7.86933 101.183 8.07933 101.183 8.378C101.183 8.49 101.169 8.61133 101.141 8.742C101.113 8.86333 101.066 9.04067 101.001 9.274C101.076 10.0113 101.136 10.674 101.183 11.262C101.239 11.85 101.267 12.4427 101.267 13.04C101.267 14.1693 101.085 15.1493 100.721 15.98C100.366 16.8107 99.8624 17.4547 99.2091 17.912C98.5651 18.3693 97.8044 18.598 96.9271 18.598ZM116.472 15.84C116.267 15.84 116.094 15.7607 115.954 15.602C115.823 15.4433 115.758 15.182 115.758 14.818C115.758 14.6967 115.772 14.566 115.8 14.426C115.828 14.2767 115.879 14.1273 115.954 13.978C115.487 12.8207 115.095 11.696 114.778 10.604C114.461 9.512 114.19 8.36867 113.966 7.174C113.667 7.79 113.383 8.42933 113.112 9.092C112.851 9.74533 112.603 10.3847 112.37 11.01C112.137 11.6353 111.927 12.2187 111.74 12.76C111.553 13.3013 111.39 13.768 111.25 14.16C111.101 14.6267 110.951 14.9393 110.802 15.098C110.653 15.266 110.499 15.35 110.34 15.35C110.125 15.35 109.962 15.2987 109.85 15.196C109.747 15.0933 109.696 14.9113 109.696 14.65C109.696 14.454 109.747 14.1507 109.85 13.74C109.953 13.3293 110.093 12.8533 110.27 12.312C110.457 11.7707 110.667 11.2013 110.9 10.604C111.133 10.0067 111.381 9.42333 111.642 8.854C111.913 8.28467 112.183 7.77133 112.454 7.314C112.725 6.84733 112.981 6.47867 113.224 6.208C113.476 5.928 113.705 5.788 113.91 5.788C114.125 5.788 114.307 5.83 114.456 5.914C114.615 5.998 114.787 6.21733 114.974 6.572C115.095 6.81467 115.235 7.16933 115.394 7.636C115.553 8.09333 115.711 8.61133 115.87 9.19C116.029 9.75933 116.183 10.3473 116.332 10.954C116.481 11.5513 116.612 12.1067 116.724 12.62C117.097 10.8933 117.424 9.38133 117.704 8.084C117.984 6.77733 118.199 5.75533 118.348 5.018C118.507 4.28067 118.591 3.89333 118.6 3.856C118.656 3.61333 118.717 3.464 118.782 3.408C118.847 3.352 118.941 3.324 119.062 3.324C119.23 3.324 119.393 3.394 119.552 3.534C119.72 3.66467 119.804 3.84667 119.804 4.08C119.804 4.192 119.776 4.44867 119.72 4.85C119.673 5.25133 119.599 5.75533 119.496 6.362C119.403 6.95933 119.281 7.62667 119.132 8.364C118.983 9.092 118.81 9.85267 118.614 10.646C118.418 11.43 118.199 12.2093 117.956 12.984C117.723 13.7493 117.466 14.4727 117.186 15.154C117.083 15.4153 116.962 15.5927 116.822 15.686C116.691 15.7887 116.575 15.84 116.472 15.84ZM123.47 15.14C122.919 15.14 122.485 14.93 122.168 14.51C121.85 14.09 121.692 13.544 121.692 12.872C121.692 12.6293 121.724 12.3727 121.79 12.102C121.864 11.822 121.958 11.57 122.07 11.346C122.004 11.2807 121.953 11.192 121.916 11.08C121.878 10.9587 121.86 10.8093 121.86 10.632C121.86 10.0813 121.953 9.57733 122.14 9.12C122.326 8.66267 122.574 8.266 122.882 7.93C123.19 7.58467 123.53 7.31867 123.904 7.132C124.286 6.94533 124.674 6.852 125.066 6.852C125.71 6.852 126.232 7.08533 126.634 7.552C127.035 8.00933 127.236 8.70933 127.236 9.652C127.236 10.1467 127.161 10.6507 127.012 11.164C126.872 11.6773 126.676 12.172 126.424 12.648C126.181 13.124 125.896 13.5487 125.57 13.922C125.252 14.2953 124.912 14.594 124.548 14.818C124.193 15.0327 123.834 15.14 123.47 15.14ZM122.994 10.87C123.05 10.9447 123.078 11.0427 123.078 11.164C123.078 11.304 123.05 11.444 122.994 11.584C122.947 11.724 122.896 11.9153 122.84 12.158C122.784 12.4007 122.756 12.746 122.756 13.194C122.756 13.642 122.933 13.866 123.288 13.866C123.68 13.866 124.044 13.712 124.38 13.404C124.716 13.0867 125.014 12.6807 125.276 12.186C125.537 11.6913 125.738 11.164 125.878 10.604C126.027 10.0347 126.102 9.498 126.102 8.994C126.102 8.66733 126.041 8.43867 125.92 8.308C125.798 8.168 125.579 8.098 125.262 8.098C124.935 8.098 124.594 8.21 124.24 8.434C123.894 8.64867 123.605 8.94267 123.372 9.316C123.138 9.68933 123.022 10.1093 123.022 10.576C123.022 10.6787 123.012 10.7767 122.994 10.87ZM130.098 15.406C129.771 15.406 129.501 15.2613 129.286 14.972C129.081 14.6733 128.978 14.146 128.978 13.39C128.978 12.5967 128.992 11.8267 129.02 11.08C129.048 10.324 129.099 9.64733 129.174 9.05C129.258 8.45267 129.37 7.97667 129.51 7.622C129.65 7.26733 129.832 7.09 130.056 7.09C130.215 7.09 130.355 7.17867 130.476 7.356C130.597 7.524 130.658 7.748 130.658 8.028C130.658 8.31733 130.63 8.70467 130.574 9.19C130.518 9.67533 130.448 10.198 130.364 10.758C130.289 11.3087 130.224 11.8453 130.168 12.368C130.112 12.8813 130.084 13.3153 130.084 13.67C130.084 13.8193 130.089 13.9407 130.098 14.034C130.117 14.118 130.145 14.16 130.182 14.16C130.322 14.16 130.471 14.0387 130.63 13.796C130.798 13.544 130.975 13.2173 131.162 12.816C131.349 12.4053 131.545 11.9573 131.75 11.472C131.955 10.9773 132.165 10.4873 132.38 10.002C132.595 9.51667 132.814 9.07333 133.038 8.672C133.262 8.26133 133.486 7.93467 133.71 7.692C133.934 7.44 134.153 7.314 134.368 7.314C134.62 7.314 134.853 7.43533 135.068 7.678C135.292 7.91133 135.404 8.24733 135.404 8.686C135.404 8.81667 135.385 9.04533 135.348 9.372C135.311 9.68933 135.264 10.0533 135.208 10.464C135.152 10.8747 135.096 11.2853 135.04 11.696C134.984 12.0973 134.937 12.4567 134.9 12.774C134.863 13.082 134.844 13.3013 134.844 13.432C134.844 13.9173 134.891 14.16 134.984 14.16C135.245 14.16 135.521 13.9967 135.81 13.67C136.109 13.334 136.407 12.9047 136.706 12.382C137.014 11.85 137.317 11.276 137.616 10.66C137.924 10.0347 138.218 9.43733 138.498 8.868C138.629 8.56933 138.736 8.36867 138.82 8.266C138.913 8.154 139.007 8.098 139.1 8.098C139.231 8.098 139.352 8.168 139.464 8.308C139.585 8.448 139.646 8.63933 139.646 8.882C139.646 8.966 139.641 9.05 139.632 9.134C139.623 9.20867 139.599 9.29267 139.562 9.386C139.245 10.226 138.904 11.0053 138.54 11.724C138.176 12.4333 137.803 13.054 137.42 13.586C137.047 14.1087 136.678 14.5193 136.314 14.818C135.95 15.1073 135.614 15.252 135.306 15.252C134.774 15.252 134.359 15.1027 134.06 14.804C133.771 14.496 133.626 14.0853 133.626 13.572C133.626 13.3573 133.64 13.0773 133.668 12.732C133.705 12.3867 133.747 12.0133 133.794 11.612C133.85 11.2107 133.906 10.8233 133.962 10.45C134.018 10.0767 134.065 9.75 134.102 9.47C134.149 9.19 134.177 8.99867 134.186 8.896C134.195 8.76533 134.181 8.7 134.144 8.7C134.107 8.7 134.032 8.82133 133.92 9.064C133.817 9.29733 133.691 9.596 133.542 9.96C133.402 10.3147 133.253 10.6833 133.094 11.066C132.917 11.486 132.711 11.948 132.478 12.452C132.254 12.9467 132.011 13.418 131.75 13.866C131.498 14.314 131.232 14.6827 130.952 14.972C130.672 15.2613 130.387 15.406 130.098 15.406ZM150.505 16.526C150.356 16.526 150.22 16.4467 150.099 16.288C149.987 16.1293 149.931 15.9287 149.931 15.686C149.931 15.546 149.95 15.308 149.987 14.972C149.931 14.972 149.875 14.972 149.819 14.972C149.287 14.972 148.783 14.86 148.307 14.636C147.831 14.4027 147.444 14.0947 147.145 13.712C146.846 13.3293 146.697 12.914 146.697 12.466C146.697 12.1207 146.837 11.8033 147.117 11.514C147.406 11.2153 147.78 10.9493 148.237 10.716C148.704 10.4733 149.208 10.2633 149.749 10.086C149.376 9.89933 149.058 9.67533 148.797 9.414C148.536 9.14333 148.405 8.84 148.405 8.504C148.405 8.14 148.559 7.76667 148.867 7.384C149.175 7.00133 149.576 6.63733 150.071 6.292C150.566 5.93733 151.093 5.62467 151.653 5.354C151.765 4.81267 151.877 4.29467 151.989 3.8C152.101 3.296 152.208 2.834 152.311 2.414C152.358 2.23667 152.428 2.092 152.521 1.98C152.624 1.85867 152.736 1.798 152.857 1.798C152.988 1.798 153.09 1.854 153.165 1.966C153.249 2.078 153.291 2.29733 153.291 2.624C153.291 2.68933 153.258 2.92267 153.193 3.324C153.128 3.716 153.039 4.22 152.927 4.836C153.254 4.724 153.571 4.64 153.879 4.584C154.187 4.51867 154.462 4.486 154.705 4.486C155.05 4.486 155.344 4.56067 155.587 4.71C155.839 4.85933 155.965 5.04133 155.965 5.256C155.965 5.38667 155.909 5.494 155.797 5.578C155.694 5.65267 155.522 5.71333 155.279 5.76C154.831 5.83467 154.383 5.92333 153.935 6.026C153.487 6.12867 153.058 6.24067 152.647 6.362C152.554 6.84733 152.46 7.356 152.367 7.888C152.274 8.42 152.176 8.966 152.073 9.526C152.708 9.414 153.235 9.358 153.655 9.358C153.982 9.358 154.22 9.38133 154.369 9.428C154.528 9.47467 154.63 9.53533 154.677 9.61C154.724 9.68467 154.747 9.764 154.747 9.848C154.747 10.072 154.523 10.2727 154.075 10.45C153.636 10.618 152.95 10.702 152.017 10.702C151.97 10.702 151.914 10.702 151.849 10.702C151.765 11.178 151.681 11.654 151.597 12.13C151.513 12.606 151.429 13.0727 151.345 13.53C152.036 13.4273 152.661 13.2873 153.221 13.11C153.79 12.9327 154.29 12.7507 154.719 12.564C155.148 12.3773 155.498 12.2233 155.769 12.102C156.04 11.9713 156.222 11.906 156.315 11.906C156.408 11.906 156.474 11.9387 156.511 12.004C156.558 12.0693 156.581 12.1253 156.581 12.172C156.581 12.312 156.46 12.5127 156.217 12.774C155.974 13.0353 155.62 13.3153 155.153 13.614C154.686 13.9033 154.112 14.1693 153.431 14.412C152.759 14.6453 151.984 14.8087 151.107 14.902C151.06 15.2193 151.014 15.5133 150.967 15.784C150.93 16.0453 150.864 16.232 150.771 16.344C150.678 16.4653 150.589 16.526 150.505 16.526ZM150.169 13.642C150.3 12.7927 150.458 11.8127 150.645 10.702C150.206 10.87 149.768 11.052 149.329 11.248C148.9 11.4347 148.54 11.6587 148.251 11.92C147.971 12.172 147.831 12.48 147.831 12.844C147.831 13.0773 147.985 13.2733 148.293 13.432C148.601 13.5813 149.049 13.656 149.637 13.656C149.814 13.656 149.992 13.6513 150.169 13.642ZM150.813 9.792C150.897 9.30667 150.986 8.81667 151.079 8.322C151.172 7.818 151.266 7.31867 151.359 6.824C150.818 7.048 150.379 7.3 150.043 7.58C149.707 7.85067 149.539 8.13533 149.539 8.434C149.539 8.67667 149.656 8.91933 149.889 9.162C150.122 9.40467 150.426 9.61467 150.799 9.792C150.799 9.792 150.804 9.792 150.813 9.792ZM71.1524 34.028C70.9191 34.028 70.6718 33.958 70.4104 33.818C70.1491 33.678 69.9064 33.4493 69.6824 33.132C69.4678 32.8147 69.2904 32.3947 69.1504 31.872C69.0104 31.3493 68.9404 30.7053 68.9404 29.94C68.9404 29.3333 69.0151 28.7173 69.1644 28.092C69.3231 27.4573 69.5658 26.86 69.8924 26.3C70.2284 25.7307 70.6578 25.2407 71.1804 24.83C71.7124 24.41 72.3564 24.1207 73.1124 23.962C73.4391 23.8873 73.8078 23.8173 74.2184 23.752C74.6384 23.6773 75.0631 23.612 75.4924 23.556C75.9311 23.4907 76.3418 23.4393 76.7244 23.402C77.1164 23.3647 77.4478 23.346 77.7184 23.346C78.1571 23.346 78.4698 23.4253 78.6564 23.584C78.8524 23.7333 78.9504 23.878 78.9504 24.018C78.9504 24.1113 78.9131 24.2 78.8384 24.284C78.7638 24.3587 78.6191 24.4053 78.4044 24.424C78.3204 24.4333 78.1431 24.4567 77.8724 24.494C77.6018 24.522 77.2751 24.564 76.8924 24.62C76.5098 24.676 76.1084 24.7367 75.6884 24.802C75.2778 24.858 74.8764 24.9187 74.4844 24.984C74.1018 25.04 73.7704 25.0913 73.4904 25.138C72.7158 25.2873 72.1044 25.544 71.6564 25.908C71.2084 26.272 70.8818 26.7013 70.6764 27.196C70.4711 27.6907 70.3404 28.1993 70.2844 28.722C70.6578 28.638 71.0638 28.5493 71.5024 28.456C71.9504 28.3627 72.3798 28.2787 72.7904 28.204C73.2011 28.12 73.5558 28.0547 73.8544 28.008C74.1624 27.9613 74.3678 27.938 74.4704 27.938C74.6664 27.938 74.7878 27.98 74.8344 28.064C74.8904 28.148 74.9184 28.2553 74.9184 28.386C74.9184 28.638 74.5078 28.918 73.6864 29.226C72.8744 29.534 71.7218 29.7953 70.2284 30.01C70.2284 30.3273 70.2331 30.654 70.2424 30.99C70.2611 31.3167 70.2891 31.62 70.3264 31.9C70.3638 32.18 70.4104 32.404 70.4664 32.572C70.5224 32.74 70.5971 32.824 70.6904 32.824C70.9051 32.824 71.1851 32.7587 71.5304 32.628C71.8851 32.4973 72.2538 32.3387 72.6364 32.152C73.0191 31.9653 73.3691 31.7833 73.6864 31.606C74.0131 31.4287 74.2511 31.2887 74.4004 31.186C74.5778 31.074 74.7691 30.9527 74.9744 30.822C75.1798 30.6913 75.3338 30.626 75.4364 30.626C75.5671 30.626 75.6324 30.7007 75.6324 30.85C75.6324 30.934 75.5578 31.0973 75.4084 31.34C75.2684 31.5827 75.0631 31.858 74.7924 32.166C74.5218 32.4647 74.1998 32.7587 73.8264 33.048C73.4624 33.328 73.0518 33.5613 72.5944 33.748C72.1464 33.9347 71.6658 34.028 71.1524 34.028ZM78.8466 34.364C78.492 34.364 78.198 34.2007 77.9646 33.874C77.7406 33.538 77.6286 33.104 77.6286 32.572C77.6286 32.0773 77.75 31.5873 77.9926 31.102C78.2446 30.6167 78.576 30.15 78.9866 29.702C79.3973 29.254 79.8453 28.8433 80.3306 28.47C80.816 28.0873 81.3013 27.756 81.7866 27.476C82.2813 27.196 82.734 26.9767 83.1446 26.818C83.5553 26.6593 83.882 26.58 84.1246 26.58C84.2553 26.58 84.3626 26.608 84.4466 26.664C84.5306 26.7107 84.5726 26.7993 84.5726 26.93C84.5726 27.014 84.54 27.0933 84.4746 27.168C84.484 27.168 84.4933 27.168 84.5026 27.168C84.708 27.168 84.8106 27.2893 84.8106 27.532C84.8106 27.616 84.778 27.7887 84.7126 28.05C84.6473 28.302 84.5726 28.6193 84.4886 29.002C84.4046 29.3847 84.33 29.8093 84.2646 30.276C84.1993 30.7333 84.1666 31.2 84.1666 31.676C84.1666 32.0773 84.3206 32.278 84.6286 32.278C84.974 32.278 85.324 32.1987 85.6786 32.04C86.0333 31.8813 86.3786 31.69 86.7146 31.466C87.0506 31.2327 87.3586 31.004 87.6386 30.78C87.9186 30.5467 88.1566 30.3507 88.3526 30.192C88.5486 30.0333 88.6886 29.954 88.7726 29.954C88.8473 29.954 88.9126 29.9773 88.9686 30.024C89.0246 30.0707 89.0526 30.1453 89.0526 30.248C89.0526 30.3413 88.9593 30.5093 88.7726 30.752C88.586 30.9947 88.3386 31.27 88.0306 31.578C87.7226 31.886 87.3773 32.1847 86.9946 32.474C86.612 32.7633 86.22 33.0013 85.8186 33.188C85.4173 33.3747 85.0346 33.468 84.6706 33.468C84.3906 33.468 84.134 33.384 83.9006 33.216C83.6766 33.0387 83.4946 32.74 83.3546 32.32C83.224 31.9 83.1586 31.3213 83.1586 30.584V30.234C82.7013 30.99 82.2206 31.6807 81.7166 32.306C81.222 32.9313 80.7273 33.4307 80.2326 33.804C79.7473 34.1773 79.2853 34.364 78.8466 34.364ZM83.8586 27.588C83.812 27.6067 83.7466 27.6347 83.6626 27.672C83.2333 27.868 82.7853 28.1107 82.3186 28.4C81.8613 28.6893 81.4133 29.0113 80.9746 29.366C80.5453 29.7207 80.158 30.0893 79.8126 30.472C79.4673 30.8547 79.192 31.242 78.9866 31.634C78.7813 32.026 78.6786 32.4087 78.6786 32.782C78.6786 32.9033 78.702 32.9967 78.7486 33.062C78.8046 33.1273 78.898 33.16 79.0286 33.16C79.2153 33.16 79.458 33.0433 79.7566 32.81C80.0553 32.5673 80.382 32.25 80.7366 31.858C81.1006 31.466 81.4646 31.032 81.8286 30.556C82.1926 30.08 82.538 29.5993 82.8646 29.114C83.2006 28.6287 83.49 28.1807 83.7326 27.77C83.77 27.7047 83.812 27.644 83.8586 27.588ZM88.3445 34.266C88.1952 34.266 88.0692 34.2053 87.9665 34.084C87.8639 33.9627 87.8125 33.7947 87.8125 33.58C87.8125 33.4213 87.8452 33.16 87.9105 32.796C87.9852 32.4227 88.0645 31.9887 88.1485 31.494C88.2419 30.9993 88.3212 30.486 88.3865 29.954C88.4519 29.4127 88.4845 28.8947 88.4845 28.4C88.4845 28.1573 88.5452 27.98 88.6665 27.868C88.7972 27.7467 88.9419 27.686 89.1005 27.686C89.2499 27.686 89.3619 27.7793 89.4365 27.966C89.5112 28.1527 89.5252 28.526 89.4785 29.086C89.9079 28.134 90.3792 27.3687 90.8925 26.79C91.4152 26.202 91.9332 25.782 92.4465 25.53C92.9599 25.2687 93.4219 25.138 93.8325 25.138C94.1032 25.138 94.2992 25.194 94.4205 25.306C94.5512 25.4087 94.6165 25.5253 94.6165 25.656C94.6165 25.8333 94.5419 25.9733 94.3925 26.076C94.2525 26.1693 94.0052 26.2813 93.6505 26.412C93.2399 26.5707 92.8619 26.7573 92.5165 26.972C92.1805 27.1773 91.8585 27.448 91.5505 27.784C91.2519 28.12 90.9579 28.5493 90.6685 29.072C90.3792 29.5853 90.0899 30.22 89.8005 30.976C89.5112 31.732 89.2032 32.642 88.8765 33.706C88.8205 33.9113 88.7459 34.056 88.6525 34.14C88.5685 34.224 88.4659 34.266 88.3445 34.266ZM95.0174 33.678C94.7467 33.678 94.5041 33.524 94.2894 33.216C94.0747 32.908 93.9674 32.5113 93.9674 32.026C93.9674 31.494 94.0374 30.9247 94.1774 30.318C94.3267 29.7113 94.5087 29.0953 94.7234 28.47C94.9381 27.8353 95.1481 27.224 95.3534 26.636C95.4001 26.5147 95.4654 26.426 95.5494 26.37C95.6427 26.3047 95.7827 26.272 95.9694 26.272C96.3054 26.272 96.4734 26.4353 96.4734 26.762C96.4734 26.8367 96.4361 27.0047 96.3614 27.266C96.2867 27.5273 96.1887 27.8493 96.0674 28.232C95.9554 28.6147 95.8387 29.03 95.7174 29.478C95.5961 29.9167 95.4887 30.36 95.3954 30.808C95.3021 31.256 95.2367 31.6713 95.1994 32.054C95.3487 31.8953 95.5167 31.6527 95.7034 31.326C95.8994 30.9993 96.1094 30.6307 96.3334 30.22C96.5574 29.8 96.7907 29.38 97.0334 28.96C97.2761 28.5307 97.5187 28.1387 97.7614 27.784C98.0134 27.42 98.2561 27.1307 98.4894 26.916C98.7321 26.692 98.9561 26.58 99.1614 26.58C99.4601 26.58 99.7121 26.6733 99.9174 26.86C100.132 27.0373 100.295 27.3547 100.407 27.812C100.529 28.26 100.589 28.8947 100.589 29.716C100.589 30.1547 100.631 30.5653 100.715 30.948C100.809 31.3307 100.953 31.6387 101.149 31.872C101.355 32.096 101.616 32.208 101.933 32.208C102.409 32.208 102.834 32.124 103.207 31.956C103.581 31.7787 103.903 31.5827 104.173 31.368C104.453 31.144 104.687 30.948 104.873 30.78C105.06 30.6027 105.205 30.514 105.307 30.514C105.522 30.514 105.629 30.626 105.629 30.85C105.629 30.9433 105.559 31.0927 105.419 31.298C105.289 31.494 105.102 31.718 104.859 31.97C104.626 32.2127 104.355 32.4507 104.047 32.684C103.749 32.908 103.427 33.0947 103.081 33.244C102.745 33.3933 102.405 33.468 102.059 33.468C101.415 33.468 100.888 33.342 100.477 33.09C100.076 32.838 99.7774 32.4227 99.5814 31.844C99.3947 31.2653 99.3014 30.4907 99.3014 29.52C99.3014 28.988 99.2687 28.6007 99.2034 28.358C99.1474 28.106 99.0401 27.938 98.8814 27.854C98.7694 28.05 98.6247 28.33 98.4474 28.694C98.2701 29.0487 98.0647 29.4453 97.8314 29.884C97.6074 30.3227 97.3694 30.766 97.1174 31.214C96.8747 31.6527 96.6274 32.0587 96.3754 32.432C96.1234 32.8053 95.8807 33.1087 95.6474 33.342C95.4141 33.566 95.2041 33.678 95.0174 33.678ZM112.872 24.704C112.433 24.704 112.144 24.6527 112.004 24.55C111.864 24.4473 111.794 24.3167 111.794 24.158C111.794 24.0367 111.864 23.92 112.004 23.808C112.153 23.6867 112.345 23.6027 112.578 23.556C112.858 23.5 113.189 23.444 113.572 23.388C113.964 23.3227 114.37 23.2667 114.79 23.22C115.219 23.164 115.63 23.122 116.022 23.094C116.423 23.066 116.773 23.052 117.072 23.052C117.511 23.0613 117.823 23.1453 118.01 23.304C118.206 23.4627 118.304 23.6073 118.304 23.738C118.304 23.8313 118.262 23.9247 118.178 24.018C118.094 24.102 117.945 24.144 117.73 24.144C117.59 24.144 117.394 24.158 117.142 24.186C116.899 24.214 116.624 24.2513 116.316 24.298C116.307 24.5967 116.269 25.0167 116.204 25.558C116.148 26.09 116.059 26.7013 115.938 27.392C115.817 28.0733 115.658 28.792 115.462 29.548C115.275 30.2947 115.047 31.0367 114.776 31.774C114.515 32.502 114.207 33.1833 113.852 33.818C113.507 34.4433 113.11 34.9753 112.662 35.414C112.223 35.8527 111.733 36.1513 111.192 36.31C111.043 36.3473 110.921 36.3753 110.828 36.394C110.735 36.4127 110.627 36.422 110.506 36.422C110.413 36.422 110.301 36.352 110.17 36.212C110.039 36.072 109.974 35.848 109.974 35.54C109.974 35.316 110.067 35.176 110.254 35.12C110.889 34.9613 111.444 34.6627 111.92 34.224C112.405 33.7853 112.83 33.1647 113.194 32.362C113.567 31.55 113.889 30.5233 114.16 29.282C114.44 28.0407 114.687 26.538 114.902 24.774C114.911 24.6807 114.93 24.5873 114.958 24.494C114.547 24.55 114.155 24.6013 113.782 24.648C113.409 24.6853 113.105 24.704 112.872 24.704ZM121.452 34.462C121.219 34.462 121.028 34.3967 120.878 34.266C120.738 34.1447 120.668 34.0093 120.668 33.86C120.668 33.692 120.692 33.566 120.738 33.482C120.794 33.3887 120.911 33.3233 121.088 33.286C121.527 33.1833 121.98 33.062 122.446 32.922C122.922 32.7727 123.366 32.6187 123.776 32.46C124.187 32.292 124.518 32.1287 124.77 31.97C125.032 31.8113 125.162 31.6713 125.162 31.55C125.162 31.438 125.06 31.3307 124.854 31.228C124.649 31.116 124.388 30.9947 124.07 30.864C123.753 30.7333 123.412 30.5887 123.048 30.43C122.684 30.2713 122.344 30.0893 122.026 29.884C121.709 29.6787 121.448 29.4453 121.242 29.184C121.037 28.9133 120.934 28.6053 120.934 28.26C120.934 27.7187 121.065 27.2147 121.326 26.748C121.597 26.272 121.947 25.8333 122.376 25.432C122.806 25.0307 123.277 24.662 123.79 24.326C124.313 23.9807 124.826 23.6773 125.33 23.416C125.844 23.1453 126.301 22.9073 126.702 22.702C126.833 22.6273 126.959 22.576 127.08 22.548C127.202 22.52 127.309 22.506 127.402 22.506C127.673 22.506 127.869 22.5667 127.99 22.688C128.112 22.8093 128.172 22.9493 128.172 23.108C128.172 23.2387 128.102 23.3927 127.962 23.57C127.822 23.738 127.622 23.8873 127.36 24.018C127.099 24.1487 126.786 24.214 126.422 24.214H126.31C125.993 24.382 125.648 24.5827 125.274 24.816C124.901 25.0493 124.532 25.306 124.168 25.586C123.804 25.866 123.468 26.1553 123.16 26.454C122.862 26.7433 122.619 27.0233 122.432 27.294C122.255 27.5647 122.166 27.812 122.166 28.036C122.166 28.3067 122.269 28.5493 122.474 28.764C122.68 28.9787 122.941 29.17 123.258 29.338C123.585 29.506 123.926 29.6693 124.28 29.828C124.644 29.9867 124.985 30.15 125.302 30.318C125.629 30.4767 125.895 30.654 126.1 30.85C126.306 31.0367 126.408 31.256 126.408 31.508C126.408 31.7973 126.306 32.0727 126.1 32.334C125.904 32.5953 125.643 32.838 125.316 33.062C124.99 33.2767 124.63 33.4727 124.238 33.65C123.856 33.818 123.478 33.9627 123.104 34.084C122.731 34.2053 122.395 34.2987 122.096 34.364C121.807 34.4293 121.592 34.462 121.452 34.462ZM128.603 38.158C128.445 38.158 128.319 38.102 128.225 37.99C128.141 37.878 128.099 37.6633 128.099 37.346C128.099 36.8887 128.132 36.3567 128.197 35.75C128.263 35.1433 128.351 34.4993 128.463 33.818C128.585 33.1367 128.715 32.4553 128.855 31.774C129.005 31.0927 129.159 30.444 129.317 29.828C129.485 29.212 129.649 28.666 129.807 28.19C129.966 27.7047 130.111 27.322 130.241 27.042C130.381 26.762 130.503 26.622 130.605 26.622C130.783 26.622 130.923 26.6733 131.025 26.776C131.137 26.8787 131.193 27.0327 131.193 27.238C131.193 27.4993 131.114 27.924 130.955 28.512C130.797 29.0907 130.591 29.8467 130.339 30.78C130.573 30.3507 130.825 29.9027 131.095 29.436C131.366 28.9693 131.651 28.5167 131.949 28.078C132.248 27.63 132.547 27.2287 132.845 26.874C133.153 26.5193 133.452 26.2347 133.741 26.02C134.031 25.8053 134.311 25.698 134.581 25.698C134.871 25.698 135.127 25.7913 135.351 25.978C135.575 26.1553 135.748 26.398 135.869 26.706C136 27.0047 136.065 27.3407 136.065 27.714C136.065 28.4887 135.935 29.24 135.673 29.968C135.412 30.6867 135.048 31.3353 134.581 31.914C134.124 32.4833 133.583 32.936 132.957 33.272C132.341 33.608 131.674 33.776 130.955 33.776C130.685 33.776 130.442 33.762 130.227 33.734C130.013 33.706 129.826 33.6733 129.667 33.636C129.555 34.252 129.448 34.8867 129.345 35.54C129.243 36.1933 129.14 36.8887 129.037 37.626C129.009 37.822 128.963 37.9573 128.897 38.032C128.832 38.116 128.734 38.158 128.603 38.158ZM134.833 26.762C134.637 26.762 134.404 26.874 134.133 27.098C133.872 27.322 133.587 27.6207 133.279 27.994C132.981 28.358 132.677 28.764 132.369 29.212C132.061 29.6507 131.763 30.0987 131.473 30.556C131.184 31.0133 130.918 31.438 130.675 31.83C130.442 32.222 130.251 32.5487 130.101 32.81C130.829 32.7913 131.469 32.6467 132.019 32.376C132.57 32.096 133.041 31.7413 133.433 31.312C133.825 30.8733 134.143 30.402 134.385 29.898C134.637 29.3847 134.819 28.89 134.931 28.414C135.043 27.9287 135.099 27.5087 135.099 27.154C135.099 26.8927 135.011 26.762 134.833 26.762ZM137.799 34.364C137.445 34.364 137.151 34.2007 136.917 33.874C136.693 33.538 136.581 33.104 136.581 32.572C136.581 32.0773 136.703 31.5873 136.945 31.102C137.197 30.6167 137.529 30.15 137.939 29.702C138.35 29.254 138.798 28.8433 139.283 28.47C139.769 28.0873 140.254 27.756 140.739 27.476C141.234 27.196 141.687 26.9767 142.097 26.818C142.508 26.6593 142.835 26.58 143.077 26.58C143.208 26.58 143.315 26.608 143.399 26.664C143.483 26.7107 143.525 26.7993 143.525 26.93C143.525 27.014 143.493 27.0933 143.427 27.168C143.437 27.168 143.446 27.168 143.455 27.168C143.661 27.168 143.763 27.2893 143.763 27.532C143.763 27.616 143.731 27.7887 143.665 28.05C143.6 28.302 143.525 28.6193 143.441 29.002C143.357 29.3847 143.283 29.8093 143.217 30.276C143.152 30.7333 143.119 31.2 143.119 31.676C143.119 32.0773 143.273 32.278 143.581 32.278C143.927 32.278 144.277 32.1987 144.631 32.04C144.986 31.8813 145.331 31.69 145.667 31.466C146.003 31.2327 146.311 31.004 146.591 30.78C146.871 30.5467 147.109 30.3507 147.305 30.192C147.501 30.0333 147.641 29.954 147.725 29.954C147.8 29.954 147.865 29.9773 147.921 30.024C147.977 30.0707 148.005 30.1453 148.005 30.248C148.005 30.3413 147.912 30.5093 147.725 30.752C147.539 30.9947 147.291 31.27 146.983 31.578C146.675 31.886 146.33 32.1847 145.947 32.474C145.565 32.7633 145.173 33.0013 144.771 33.188C144.37 33.3747 143.987 33.468 143.623 33.468C143.343 33.468 143.087 33.384 142.853 33.216C142.629 33.0387 142.447 32.74 142.307 32.32C142.177 31.9 142.111 31.3213 142.111 30.584V30.234C141.654 30.99 141.173 31.6807 140.669 32.306C140.175 32.9313 139.68 33.4307 139.185 33.804C138.7 34.1773 138.238 34.364 137.799 34.364ZM142.811 27.588C142.765 27.6067 142.699 27.6347 142.615 27.672C142.186 27.868 141.738 28.1107 141.271 28.4C140.814 28.6893 140.366 29.0113 139.927 29.366C139.498 29.7207 139.111 30.0893 138.765 30.472C138.42 30.8547 138.145 31.242 137.939 31.634C137.734 32.026 137.631 32.4087 137.631 32.782C137.631 32.9033 137.655 32.9967 137.701 33.062C137.757 33.1273 137.851 33.16 137.981 33.16C138.168 33.16 138.411 33.0433 138.709 32.81C139.008 32.5673 139.335 32.25 139.689 31.858C140.053 31.466 140.417 31.032 140.781 30.556C141.145 30.08 141.491 29.5993 141.817 29.114C142.153 28.6287 142.443 28.1807 142.685 27.77C142.723 27.7047 142.765 27.644 142.811 27.588ZM147.297 34.266C147.148 34.266 147.022 34.2053 146.919 34.084C146.816 33.9627 146.765 33.7947 146.765 33.58C146.765 33.4213 146.798 33.16 146.863 32.796C146.938 32.4227 147.017 31.9887 147.101 31.494C147.194 30.9993 147.274 30.486 147.339 29.954C147.404 29.4127 147.437 28.8947 147.437 28.4C147.437 28.1573 147.498 27.98 147.619 27.868C147.75 27.7467 147.894 27.686 148.053 27.686C148.202 27.686 148.314 27.7793 148.389 27.966C148.464 28.1527 148.478 28.526 148.431 29.086C148.86 28.134 149.332 27.3687 149.845 26.79C150.368 26.202 150.886 25.782 151.399 25.53C151.912 25.2687 152.374 25.138 152.785 25.138C153.056 25.138 153.252 25.194 153.373 25.306C153.504 25.4087 153.569 25.5253 153.569 25.656C153.569 25.8333 153.494 25.9733 153.345 26.076C153.205 26.1693 152.958 26.2813 152.603 26.412C152.192 26.5707 151.814 26.7573 151.469 26.972C151.133 27.1773 150.811 27.448 150.503 27.784C150.204 28.12 149.91 28.5493 149.621 29.072C149.332 29.5853 149.042 30.22 148.753 30.976C148.464 31.732 148.156 32.642 147.829 33.706C147.773 33.9113 147.698 34.056 147.605 34.14C147.521 34.224 147.418 34.266 147.297 34.266ZM159.738 34.742C159.131 34.742 158.571 34.5973 158.058 34.308C157.554 34.0187 157.097 33.6453 156.686 33.188C156.285 32.7307 155.925 32.2407 155.608 31.718C155.3 31.186 155.034 30.6867 154.81 30.22C154.651 30.976 154.525 31.5873 154.432 32.054C154.348 32.5207 154.278 32.8753 154.222 33.118C154.175 33.3607 154.129 33.524 154.082 33.608C154.035 33.692 153.975 33.734 153.9 33.734C153.695 33.734 153.499 33.622 153.312 33.398C153.125 33.174 153.032 32.8847 153.032 32.53C153.032 32.1567 153.097 31.662 153.228 31.046C153.359 30.4207 153.531 29.73 153.746 28.974C153.97 28.2087 154.227 27.42 154.516 26.608C154.805 25.7867 155.104 24.9887 155.412 24.214C155.729 23.43 156.047 22.716 156.364 22.072C156.523 21.7547 156.658 21.5493 156.77 21.456C156.891 21.3627 157.036 21.316 157.204 21.316C157.475 21.316 157.61 21.442 157.61 21.694C157.61 21.7873 157.582 21.89 157.526 22.002C157.479 22.114 157.428 22.24 157.372 22.38C157.204 22.7907 157.017 23.2527 156.812 23.766C156.616 24.2793 156.415 24.816 156.21 25.376C156.014 25.936 155.827 26.4913 155.65 27.042C155.473 27.5927 155.319 28.1013 155.188 28.568C155.589 28.288 156.061 28.008 156.602 27.728C157.143 27.448 157.703 27.196 158.282 26.972C158.861 26.7387 159.407 26.552 159.92 26.412C160.433 26.272 160.858 26.202 161.194 26.202C161.371 26.202 161.507 26.258 161.6 26.37C161.703 26.4727 161.754 26.5893 161.754 26.72C161.754 26.8227 161.721 26.9253 161.656 27.028C161.6 27.1213 161.479 27.2053 161.292 27.28C160.676 27.4947 160.065 27.714 159.458 27.938C158.851 28.1527 158.217 28.386 157.554 28.638C156.901 28.8807 156.187 29.17 155.412 29.506C155.655 29.9167 155.939 30.36 156.266 30.836C156.593 31.3027 156.943 31.746 157.316 32.166C157.689 32.5767 158.072 32.9173 158.464 33.188C158.856 33.4493 159.248 33.58 159.64 33.58C160.153 33.58 160.648 33.4727 161.124 33.258C161.6 33.0433 162.039 32.782 162.44 32.474C162.851 32.166 163.21 31.8673 163.518 31.578C163.826 31.2793 164.069 31.046 164.246 30.878C164.339 30.794 164.423 30.738 164.498 30.71C164.582 30.6727 164.657 30.654 164.722 30.654C164.853 30.654 164.941 30.724 164.988 30.864C165.044 30.9947 164.997 31.1393 164.848 31.298C164.736 31.4287 164.563 31.6293 164.33 31.9C164.097 32.1707 163.812 32.4693 163.476 32.796C163.149 33.1133 162.785 33.4213 162.384 33.72C161.992 34.0187 161.567 34.2613 161.11 34.448C160.662 34.644 160.205 34.742 159.738 34.742ZM165.651 34.308C165.446 34.308 165.287 34.2473 165.175 34.126C165.072 34.014 165.021 33.8833 165.021 33.734C165.021 33.6033 165.077 33.482 165.189 33.37C165.31 33.2487 165.474 33.1413 165.679 33.048C166.052 32.852 166.402 32.656 166.729 32.46C167.065 32.264 167.336 32.054 167.541 31.83C167.746 31.606 167.849 31.368 167.849 31.116C167.849 30.9013 167.779 30.738 167.639 30.626C167.499 30.5047 167.308 30.444 167.065 30.444C166.925 30.444 166.729 30.472 166.477 30.528C166.225 30.5747 165.95 30.6307 165.651 30.696C165.362 30.752 165.077 30.808 164.797 30.864C164.517 30.9107 164.279 30.934 164.083 30.934C163.728 30.934 163.462 30.85 163.285 30.682C163.108 30.5047 163.019 30.2667 163.019 29.968C163.019 29.8187 163.108 29.5947 163.285 29.296C163.462 28.9973 163.696 28.666 163.985 28.302C164.284 27.9287 164.61 27.5553 164.965 27.182C165.32 26.8087 165.679 26.4633 166.043 26.146C166.416 25.8287 166.762 25.572 167.079 25.376C167.406 25.18 167.676 25.082 167.891 25.082C168.106 25.082 168.269 25.152 168.381 25.292C168.493 25.432 168.549 25.6093 168.549 25.824C168.549 25.992 168.521 26.1367 168.465 26.258C168.409 26.37 168.292 26.4587 168.115 26.524C167.947 26.5893 167.686 26.6267 167.331 26.636C166.967 26.9253 166.58 27.2567 166.169 27.63C165.768 27.994 165.399 28.372 165.063 28.764C164.736 29.1467 164.498 29.5153 164.349 29.87C164.657 29.7673 165.03 29.6787 165.469 29.604C165.917 29.52 166.37 29.478 166.827 29.478C167.546 29.478 168.078 29.6413 168.423 29.968C168.778 30.2853 168.955 30.7053 168.955 31.228C168.955 31.564 168.848 31.914 168.633 32.278C168.428 32.6327 168.157 32.964 167.821 33.272C167.485 33.58 167.126 33.8273 166.743 34.014C166.36 34.21 165.996 34.308 165.651 34.308Z" fill="white"/>
</svg>
