<svg width="50" height="50" viewBox="0 0 50 50" fill="none" xmlns="http://www.w3.org/2000/svg">
<g clip-path="url(#clip0_437_2940)">
<path d="M50 0H0V50H50V0Z" fill="#2C5FF6"/>
<path fill-rule="evenodd" clip-rule="evenodd" d="M25 42.5C34.665 42.5 42.5 34.665 42.5 25C42.5 15.335 34.665 7.5 25 7.5C15.335 7.5 7.5 15.335 7.5 25C7.5 34.665 15.335 42.5 25 42.5ZM20.625 19.2857C19.8854 19.2857 19.2857 19.8854 19.2857 20.625V29.375C19.2857 30.1146 19.8854 30.7143 20.625 30.7143H29.375C30.1146 30.7143 30.7143 30.1146 30.7143 29.375V20.625C30.7143 19.8854 30.1146 19.2857 29.375 19.2857H20.625Z" fill="white"/>
</g>
<defs>
<clipPath id="clip0_437_2940">
<rect width="50" height="50" fill="white"/>
</clipPath>
</defs>
</svg>
